<svg xmlns="http://www.w3.org/2000/svg" width="188" height="48" fill="none" viewBox="0 0 188 48"><mask id="a" width="186" height="46" x="1" y="1" maskUnits="userSpaceOnUse" style="mask-type:luminance"><path fill="#fff" d="M186.782 1.31H1.218v45.38h185.564z"/></mask><g mask="url(#a)"><mask id="b" width="186" height="46" x="1" y="1" maskUnits="userSpaceOnUse" style="mask-type:luminance"><path fill="#fff" d="M186.782 1.31H1.218v45.38h185.564z"/></mask><g mask="url(#b)"><path fill="#005d45" d="M5.151 15.332a.674.674 0 0 0 .684-.69.67.67 0 0 0-.684-.69.673.673 0 0 0-.683.69c0 .376.281.69.683.69M3.218 15.332a.68.68 0 0 0 .684-.69.68.68 0 0 0-.684-.69c-.416 0-.684.312-.684.69 0 .376.268.69.684.69M13.128 17.997c0 .379.282.677.767.677s.778-.38.778-.799c0-.905-.926-1.528-1.933-1.528-1.666 0-3.128 1.298-3.128 3.097 0 1.124.51 2.043 1.317 2.583H7.304c-.63-.054-.697-.717-.697-1.082V17.44c0-.284.014-.635.095-.986h-.673c-.094.095-.067.149-.094.202-.053.163-.12.338-.148.338l-.229-.15c-.31-.202-.82-.541-1.584-.541-1.691 0-2.754 1.528-2.754 3.085 0 1.678 1.06 3.139 2.472 3.139 1.14 0 1.746-.826 1.947-1.408 0 1.231.753 1.394 1.665 1.408h5.318c.832 0 1.45-.27 1.947-.759l-.335-.23c-.348.312-.792.486-1.37.486-1.33 0-1.905-1.163-1.905-2.732 0-1.663.63-2.515 1.827-2.515.684 0 1.06.284 1.25.65-.095-.014-.176-.029-.268-.029-.402 0-.63.217-.63.596m-7.825 2.858c-.215.716-.792 1.217-1.45 1.217-.564 0-1.423-.608-1.423-2.597 0-1.394.483-2.692 1.531-2.692 1.342 0 1.49 1.284 1.49 2.433 0 .717-.028 1.231-.148 1.636M17.477 22.527v-8.644l-1.757.337c.563.189.577.284.577.596v7.709h1.183zM21.681 16.496l-1.785.338c.59.19.605.283.605.61v3.436c-.106 2.543-1.074 3.502-3.021 4.03.496.04.792.053.967.053 3.008 0 3.236-2.678 3.236-5.1v-3.37zM24.823 15.428a.704.704 0 0 0 .697-.703.704.704 0 0 0-.697-.703.695.695 0 0 0-.698.703c0 .405.321.703.698.703M28.581 14.818v5.91c0 .798-.31 1.299-1.06 1.299h-2c.108-.691.133-1.434.133-2.164v-3.37l-1.771.338c.577.19.591.284.591.61v3.436c-.095 2.544-1.06 3.504-3.021 4.03.496.04.806.054.968.054 1.88 0 2.672-1.056 2.993-2.434h2.391c1.141 0 1.961-.621 1.961-1.76v-6.884l-1.771.337c.59.189.59.284.59.596M31.55 14.818v7.709h1.182v-8.644l-1.76.337c.563.189.577.284.577.596M34.208 20.419c0 1.298 1.155 2.082 2.056 2.11h.067c.98 0 1.384-.514 1.665-.96-.254 2.528-1.757 3.07-2.887 3.326l-.321.054c.483.04.912.067 1.102.067 1.437 0 3.264-.567 3.264-5.153v-3.314h-1.021c-2.282 0-3.922 1.515-3.922 3.867m3.758-.337c0 1.052-.615 2.022-1.416 2.029-.762-.033-1.176-.975-1.176-1.77 0-2.016 1.261-3.37 2.444-3.37h.148zM45.636 16.305c-1.786 0-2.835 1.529-2.835 3.125s1.05 3.097 2.835 3.097 2.834-1.529 2.834-3.097-1.06-3.125-2.834-3.125m0 5.764c-1.074 0-1.557-.947-1.557-2.64 0-1.69.483-2.652 1.557-2.652s1.545.933 1.545 2.653-.483 2.639-1.545 2.639M55.423 23.772a.663.663 0 0 0-.684.677c0 .379.282.69.684.69a.674.674 0 0 0 .683-.69.66.66 0 0 0-.684-.677M53.49 23.772a.654.654 0 0 0-.685.677c0 .379.268.69.684.69.39 0 .684-.311.684-.69a.67.67 0 0 0-.684-.677M68.259 14.804v5.925c0 .784-.31 1.298-1.008 1.298h-1.035c-.605 0-1.073-.568-1.302-1.203q.041-.224.04-.486c0-1.245-.874-2.895-2.498-2.895-1.975 0-2.31 1.245-2.633 2.501-.176.677-.39 1.487-.792 1.88-.162.135-.391.177-.511.203h-1.06c-.94 0-1.504-1.231-1.504-2.083v-3.448l-1.772.337c.538.189.592.245.592.543v3.394c0 .785-.296 1.26-1.008 1.26h-1.046c-.564-.04-.887-.42-.887-1.136v-6.98l-2.148.095v.446c.764 0 .968.121.968.447v5.938c0 1.285.845 1.692 1.986 1.692h1.37c.831 0 1.665-.244 1.986-1.057.416.636.994 1.057 1.68 1.057h.831c.712 0 1.102-.23 1.41-.568.401.514.965 1.15 2.187 1.15 1.303 0 2.134-.664 2.525-1.487.457.595.968.905 1.852.905h.98c1.14 0 1.96-.622 1.96-1.76v-6.898l-1.785.337c.603.19.617.284.617.596m-6.105 7.83c-.832 0-1.437-.69-1.786-1.122-.014-.028-.039-.067-.067-.082.257-.486.377-.986.497-1.447l.028-.081c.268-1.057.538-2.03 1.397-2.03h.053c.98.04 1.45 1.246 1.45 2.53s-.724 2.232-1.57 2.232M71.213 14.818v7.709h1.183v-8.644l-1.76.337c.563.189.577.284.577.596M73.87 20.419c0 1.298 1.155 2.082 2.056 2.11h.067c.98 0 1.383-.514 1.665-.96-.254 2.528-1.76 3.07-2.888 3.326l-.32.054c.482.04.912.067 1.102.067 1.436 0 3.263-.567 3.263-5.153v-3.314h-1.02c-2.283 0-3.923 1.515-3.923 3.867m3.758-.337c0 1.052-.614 2.022-1.416 2.029-.762-.033-1.175-.975-1.175-1.77 0-2.016 1.26-3.37 2.443-3.37h.148zM84.48 15.332c.389 0 .683-.312.683-.69a.68.68 0 0 0-.684-.69c-.415 0-.684.312-.684.69 0 .376.269.69.684.69M86.413 15.332a.674.674 0 0 0 .683-.69.67.67 0 0 0-.683-.69.673.673 0 0 0-.684.69c0 .376.282.69.684.69M92.95 14.63h-.63c-.497 0-.831-.622-.831-1.029 0-.27.16-.582.39-.582.066 0 .175.014.228.094-.106.095-.201.244-.201.325 0 .203.188.337.444.337s.443-.08.443-.393c0-.405-.39-.716-.887-.716-.712 0-1.115.5-1.115 1.096 0 .337.267.663.51.865h-.605l-.162.433h2.416v-.433zM96.535 23.772a.663.663 0 0 0-.684.677c0 .379.281.69.684.69a.674.674 0 0 0 .683-.69.66.66 0 0 0-.683-.677M94.602 23.772a.655.655 0 0 0-.684.677c0 .379.268.69.684.69.39 0 .684-.311.684-.69a.67.67 0 0 0-.684-.677M100.887 23.611a.704.704 0 0 0-.698.703c0 .391.321.703.698.703a.695.695 0 0 0 .697-.703.695.695 0 0 0-.697-.703M104.887 14.818v5.91c0 .799-.309 1.299-1.06 1.299h-.429c-.941 0-1.504-1.231-1.504-2.083v-3.448l-1.772.337c.539.189.592.245.592.543v3.394c0 .785-.297 1.26-1.008 1.26h-1.127c-.94 0-1.504-1.232-1.504-2.083v-3.449l-1.772.338c.539.188.592.244.592.542v3.395c0 .784-.296 1.259-1.007 1.259h-.753c-.94 0-1.504-1.231-1.504-2.083v-3.448l-1.772.337c.538.188.592.244.592.542v3.395c0 .784-.296 1.259-1.008 1.259h-1.88c-.63-.054-.697-.717-.697-1.082v-3.504c0-.284.013-.636.094-.987h-.672c-.095.096-.067.149-.095.203-.053.162-.12.337-.147.337l-.229-.15c-.31-.201-.82-.541-1.585-.541-1.691 0-2.754 1.529-2.754 3.085 0 1.678 1.061 3.14 2.472 3.14 1.142 0 1.747-.827 1.948-1.409 0 1.231.753 1.394 1.665 1.408h2.12c.832 0 1.666-.244 1.987-1.056.4.61.95 1.016 1.599 1.05v.006h.859c.832 0 1.665-.244 1.987-1.056.415.635.992 1.056 1.679 1.056h1.154c.832 0 1.666-.244 1.987-1.056.4.61.95 1.016 1.598 1.05v.006h.578c1.142 0 1.962-.621 1.962-1.759V13.89l-1.772.337c.591.189.591.284.591.596m-18.32 6.029c-.215.716-.792 1.217-1.451 1.217-.563 0-1.422-.608-1.422-2.597 0-1.394.482-2.692 1.53-2.692 1.343 0 1.49 1.284 1.49 2.434 0 .716-.027 1.23-.147 1.636M107.856 14.818v7.709h1.183v-8.644l-1.76.337c.563.189.577.284.577.596M116.516 15.062a.68.68 0 0 0 .683-.69.68.68 0 0 0-.683-.69.674.674 0 0 0-.685.69c0 .39.282.69.685.69M115.522 16.305c-1.785 0-2.834 1.529-2.834 3.125s1.046 3.097 2.834 3.097 2.835-1.529 2.835-3.097-1.06-3.125-2.835-3.125m0 5.764c-1.074 0-1.557-.947-1.557-2.64 0-1.69.483-2.652 1.557-2.652 1.075 0 1.545.933 1.545 2.653s-.483 2.639-1.545 2.639M114.568 15.062a.674.674 0 0 0 .684-.69.67.67 0 0 0-.684-.69c-.402 0-.672.298-.672.69 0 .39.268.69.672.69M121.376 17.443v3.437c-.107 2.543-1.074 3.504-3.021 4.03.496.04.791.053.967.053 3.007 0 3.237-2.678 3.237-5.1v-3.37l-1.785.338c.59.191.604.284.604.61M125.525 22.527v-8.644l-1.759.337c.564.189.578.284.578.596v7.709h1.182zM128.546 17.375v3.437c-.107 2.543-1.073 3.502-3.021 4.03.496.04.792.068.968.068 3.007 0 3.236-2.692 3.236-5.112v-3.356l-1.786.338c.592.177.606.284.606.595M129.057 13.683a.695.695 0 0 0-.698.702c0 .405.321.703.698.703a.69.69 0 0 0 .684-.703.7.7 0 0 0-.684-.703M135.125 16.55c-2.282 0-3.922 1.514-3.922 3.867 0 1.298 1.154 2.082 2.055 2.11h.068c.979 0 1.384-.514 1.665-.96-.255 2.529-1.76 3.07-2.887 3.326l-.322.054c.483.04.913.068 1.102.068 1.437 0 3.264-.568 3.264-5.155v-3.313h-1.021zm-.162 3.53c0 1.051-.614 2.021-1.415 2.028-.763-.032-1.176-.975-1.176-1.77 0-2.015 1.261-3.37 2.443-3.37h.148zM1.931 29.826c0-.675-.101-.644-.713-.768v-.16h1.635l1.425 4.004h.014l1.398-4.004h.972v4.882h-.72v-4.317h-.014L4.415 33.78h-.51l-1.507-4.273h-.014v4.273h-.453zM7.82 31.348c0-.507-.116-.63-.555-.644v-.145l1.275-.232v3.453h-.72v-2.432m-.08-2.052a.45.45 0 0 1 .454-.45c.251 0 .46.196.46.45a.464.464 0 0 1-.467.456.446.446 0 0 1-.446-.456M9.642 31.348c0-.507-.122-.63-.575-.644v-.145l1.296-.232v.928h.014c.108-.254.49-.928 1.2-.928.657 0 .872.465.872 1.021v2.43h-.721V31.9c0-.573 0-1.08-.483-1.08s-.885.675-.885 1.189v1.77h-.72V31.35zM13.537 31.348c0-.507-.116-.63-.555-.644v-.145l1.276-.232v3.453h-.721v-2.432m-.079-2.052a.45.45 0 0 1 .453-.45c.252 0 .46.196.46.45a.464.464 0 0 1-.467.456.446.446 0 0 1-.446-.456M16.971 30.994c-.108-.072-.453-.349-.857-.349-.23 0-.503.086-.503.398 0 .689 1.577.703 1.577 1.813 0 .712-.582 1-1.296 1-.438 0-.755-.086-.921-.13v-.565c.208.146.547.377.95.377.452 0 .618-.233.618-.487 0-.712-1.575-.754-1.575-1.754 0-.521.353-.973 1.201-.973.367 0 .684.096.806.123v.547M19.664 33.8c-.159.031-.323.059-.482.059-.691 0-1.095-.11-1.095-.935v-2.227h-.562v-.291h.562v-.572l.72-.645v1.22h.943v.29h-.943v2.11c0 .508.037.733.592.733.085 0 .18-.006.265-.027v.29zM20.342 31.348c0-.507-.116-.63-.568-.644v-.145l1.288-.232v.956h.014c.102-.333.324-.956.901-.956.13 0 .266.014.388.037v.689c-.115-.038-.244-.087-.367-.087-.728 0-.936.573-.936 1.082v1.734h-.72v-2.434"/><path fill="#005d45" d="M24.43 34.054c-.224.58-.475 1.203-1.258 1.203-.784 0-.973-.602-1-.928h.826c0 .216.037.537.381.537.317 0 .476-.37.576-.63l.094-.247-1.16-2.785c-.172-.428-.272-.63-.77-.654v-.144h1.224l1.064 2.669 1.038-2.67h.41zM28.297 32.095c0-1.212.503-1.77 1.555-1.77 1.05 0 1.554.725 1.554 1.77 0 1.182-.49 1.761-1.554 1.761-1.16 0-1.555-.747-1.555-1.761m1.555 1.517c.706 0 .762-.791.762-1.515 0-.668-.065-1.524-.762-1.524s-.763.884-.763 1.524c0 .6.051 1.515.763 1.515M32.328 30.697h-.585v-.291h.585v-.487c0-.58.252-1.219 1.115-1.219.922 0 1.239.326 1.317.856h-.806c-.007-.26-.102-.61-.46-.61-.418 0-.446.464-.446.806v.654h.959v.29h-.959v3.083h-.72zM36.72 29.884c0-.718-.022-.718-.684-.826v-.16h3.448l.021 1.073h-.201c0-.58-.303-.733-.778-.733h-.562c-.36 0-.453.027-.453.377v1.442h.871c.497 0 .548-.319.592-.558h.2v1.524h-.2c0-.391-.16-.624-.592-.624h-.87v1.617c0 .407.092.422.452.422h.8c.41 0 .605-.145.649-.713h.2l-.023 1.052h-2.87v-3.895zM40.464 31.348c0-.507-.123-.63-.576-.644v-.145l1.296-.232v.928h.014c.109-.254.49-.928 1.204-.928.656 0 .87.465.87 1.021v2.43h-.72V31.9c0-.573 0-1.08-.483-1.08s-.885.675-.885 1.189v1.77h-.72v-2.431M44.28 31.204c-.18-.486-.26-.61-.749-.654v-.144h1.203l1.008 2.552.979-2.552h.411l-1.289 3.371h-.526l-1.038-2.576zM47.816 31.348c0-.507-.116-.63-.555-.644v-.145l1.275-.232v3.453h-.72v-2.432m-.081-2.052c0-.247.2-.45.453-.45.251 0 .46.196.46.45a.464.464 0 0 1-.467.456.446.446 0 0 1-.446-.456M49.593 31.348c0-.507-.116-.63-.569-.644v-.145l1.29-.232v.956h.013c.102-.333.324-.956.901-.956.13 0 .266.014.388.037v.689c-.115-.038-.245-.087-.367-.087-.728 0-.936.573-.936 1.082v1.734h-.72v-2.434M51.697 32.095c0-1.212.503-1.77 1.554-1.77s1.555.725 1.555 1.77c0 1.182-.49 1.761-1.555 1.761-1.16 0-1.554-.747-1.554-1.761m1.554 1.517c.707 0 .763-.791.763-1.515 0-.668-.065-1.524-.763-1.524-.697 0-.762.884-.762 1.524 0 .6.05 1.515.762 1.515M55.62 31.348c0-.507-.121-.63-.574-.644v-.145l1.296-.232v.928h.013c.109-.254.49-.928 1.204-.928.656 0 .87.465.87 1.021v2.43h-.72V31.9c0-.573 0-1.08-.483-1.08s-.884.675-.884 1.189v1.77h-.721v-2.431M59.444 31.348c0-.507-.115-.63-.554-.644v-.145l1.289-.232v.863h.014c.122-.254.455-.863 1.102-.863.646 0 .836.486.884.812h.014c.15-.284.425-.812 1.074-.812.915 0 .915.842.915 1.356v2.097h-.72V31.8c0-.45 0-.98-.484-.98-.547 0-.806.76-.806 1.282v1.675h-.72V31.9c0-.573 0-1.08-.483-1.08s-.806.675-.806 1.189v1.77h-.721V31.35zM67.621 33.663c-.136.052-.517.196-1.014.196-1.102 0-1.765-.675-1.765-1.885 0-1.145.547-1.647 1.514-1.647 1.23 0 1.332.9 1.332 1.384h-2.051c0 .726.296 1.755 1.31 1.755.302 0 .554-.073.676-.124v.319zm-.653-2.243c0-.167-.014-.849-.64-.849-.541 0-.691.572-.691.85h1.333zM68.4 31.348c0-.507-.122-.63-.575-.644v-.145l1.296-.232v.928h.014c.108-.254.49-.928 1.2-.928.657 0 .872.465.872 1.021v2.43h-.721V31.9c0-.573 0-1.08-.483-1.08s-.885.675-.885 1.189v1.77h-.72V31.35zM73.93 33.8c-.159.031-.323.059-.482.059-.69 0-1.095-.11-1.095-.935v-2.227h-.562v-.291h.562v-.572l.72-.645v1.22h.943v.29h-.943v2.11c0 .508.037.733.592.733.085 0 .18-.006.265-.027v.29zM77.18 29.826c-.15-.66-.217-.654-.814-.768v-.16h1.303l.952 3.953h.014l1.137-3.953h.496l1.296 3.953h.014l.792-3.953h.47l-1.015 4.882h-.684l-1.252-3.865h-.013l-1.11 3.865h-.67l-.914-3.954zM85.006 33.35c-.13.153-.374.506-.929.506-.554 0-.965-.407-.965-.833 0-1.021 1.432-1.103 1.894-1.116v-.37c0-.456 0-.964-.455-.964s-.504.421-.504.74h-.857c.079-.48.317-.986 1.354-.986s1.18.53 1.18 1.247v2.203h-.72v-.428zm0-1.183c-.26.007-1.102.044-1.102.733 0 .333.166.566.432.566.418 0 .67-.384.67-.878zM88.397 33.8a2.6 2.6 0 0 1-.483.059c-.69 0-1.094-.11-1.094-.935v-2.227h-.563v-.291h.563v-.572l.72-.645v1.22h.942v.29h-.942v2.11c0 .508.036.733.59.733.087 0 .181-.006.267-.027v.29zM91.529 33.663c-.136.052-.518.196-1.014.196-1.102 0-1.765-.675-1.765-1.885 0-1.145.547-1.647 1.513-1.647 1.231 0 1.333.9 1.333 1.384h-2.051c0 .726.295 1.755 1.309 1.755.303 0 .554-.073.677-.124v.319zm-.656-2.243c0-.167-.014-.849-.64-.849-.54 0-.69.572-.69.85h1.332zM92.264 31.348c0-.507-.115-.63-.568-.644v-.145l1.29-.232v.956h.013c.101-.333.323-.956.901-.956.129 0 .265.014.387.037v.689c-.115-.038-.244-.087-.367-.087-.727 0-.935.573-.935 1.082v1.734h-.72v-2.434M105.149 29.826c.044-.123.122-.377.122-.428 0-.29-.265-.298-.555-.34v-.16h1.354l1.758 4.882h-.748l-.541-1.508h-1.836l-.541 1.508h-.446zm-.323 2.104h1.59l-.82-2.118-.769 2.118zM110.987 33.887c0 .746-.136 1.435-1.397 1.435-.884 0-1.504-.205-1.504-1.014h.814c0 .304.092.768.669.768.698 0 .698-.559.698-.957v-.849h-.014c-.129.216-.323.507-.907.507-.909 0-1.266-.76-1.266-1.61 0-.935.282-1.843 1.275-1.843.517 0 .776.305.901.5h.013v-.42h1.29v.144c-.231 0-.568.037-.568.514v2.82zm-.72-2.255c0-.459-.231-.915-.677-.915-.656 0-.721.82-.721 1.35s.072 1.32.664 1.32c.619 0 .734-.638.734-1.038v-.72z"/><path fill="#005d45" d="M112.09 31.348c0-.507-.115-.63-.568-.644v-.145l1.289-.232v.956h.014c.102-.333.324-.956.901-.956.129 0 .265.014.388.037v.689c-.115-.038-.245-.087-.367-.087-.728 0-.936.573-.936 1.082v1.734h-.721v-2.434M114.695 31.348c0-.507-.115-.63-.554-.644v-.145l1.276-.232v3.453h-.722v-2.432m-.077-2.052c0-.247.2-.45.452-.45s.46.196.46.45a.465.465 0 0 1-.467.456.446.446 0 0 1-.445-.456M118.779 33.684c-.258.093-.425.175-1.02.175-1.008 0-1.606-.72-1.606-1.813 0-.993.402-1.72 1.432-1.72.799 0 1.326.408 1.326.994h-.85c0-.298-.071-.747-.518-.747-.489 0-.598.538-.598 1.233 0 1.073.49 1.662 1.146 1.662.224 0 .518-.044.691-.103v.32zM121.535 32.958h-.013c-.123.319-.419.898-1.116.898-.965 0-.965-.942-.965-1.48v-1.03c0-.508-.116-.63-.555-.645v-.144l1.275-.233v2.183c0 .66.245.856.591.856.47 0 .786-.617.786-1.22v-.797c0-.508-.123-.63-.554-.645v-.144l1.274-.233v3.453h-.72v-.819zM123.205 29.687c0-.515-.122-.638-.547-.661v-.145l1.266-.181v5.077h-.721v-4.09zM126.698 33.8c-.159.031-.323.059-.482.059-.691 0-1.096-.11-1.096-.935v-2.227h-.561v-.291h.561v-.572l.721-.645v1.22h.943v.29h-.943v2.11c0 .508.037.733.592.733.085 0 .18-.006.265-.027v.29zM129.514 32.958h-.014c-.122.319-.417.898-1.115.898-.967 0-.967-.942-.967-1.48v-1.03c0-.508-.115-.63-.553-.645v-.144l1.275-.233v2.183c0 .66.245.856.591.856.469 0 .786-.617.786-1.22v-.797c0-.508-.123-.63-.555-.645v-.144l1.276-.233v3.453h-.721v-.819zM131.232 31.348c0-.507-.115-.63-.568-.644v-.145l1.289-.232v.956h.014c.103-.333.324-.956.902-.956.128 0 .264.014.387.037v.689c-.115-.038-.245-.087-.367-.087-.728 0-.936.573-.936 1.082v1.734h-.721v-2.434M136.081 33.663c-.137.052-.518.196-1.015.196-1.101 0-1.764-.675-1.764-1.885 0-1.145.547-1.647 1.513-1.647 1.231 0 1.333.9 1.333 1.384h-2.052c0 .726.297 1.755 1.31 1.755.303 0 .555-.073.677-.124v.319zm-.656-2.243c0-.167-.015-.849-.64-.849-.541 0-.691.572-.691.85h1.333zM101.24 32.965s-.028.005-.099.082a1.5 1.5 0 0 1-.282.237c-.122.065-.319.054-.525-.079a2 2 0 0 1-.37-.335l-.092-.105a.33.33 0 0 1-.101-.151l-.007-.032.02-.026c.294-.377.504-.633.627-.759.199-.211.335-.344.418-.402a3 3 0 0 1 .349-.193l.004-.028a.5.5 0 0 0 .012-.098v-.023a3 3 0 0 1-.155.011h-.178l-.256.014q-.345.02-.577.047c-.017 0-.059.007-.156.028l-.006.12q.124.056.186.129a.3.3 0 0 1 .077.19c0 .073-.035.173-.109.308q-.138.251-.353.465l-.05.049-.05-.051a2 2 0 0 1-.12-.147l-.406-.5a4 4 0 0 0-.229-.26 3 3 0 0 1-.317-.336l-.03-.042.034-.041a.2.2 0 0 1 .1-.068 1.6 1.6 0 0 0 .34-.19q.207-.142.265-.262a.8.8 0 0 0 .079-.348q0-.303-.272-.545c-.183-.163-.437-.247-.753-.247-.233 0-.316.014-.344.024-.02.007-.056.018-.1.03-.254.067-.453.184-.588.349a.83.83 0 0 0-.201.547.9.9 0 0 0 .048.283 1 1 0 0 0 .115.238q.073.102.324.393l.052.063-.068.044a2 2 0 0 1-.197.09 2.6 2.6 0 0 0-.506.294 1.3 1.3 0 0 0-.406.452q-.139.26-.14.551c0 .316.114.58.334.782.223.205.575.31 1.043.31.546 0 1.057-.191 1.518-.57l.047-.038.044.04q.357.325.655.463.224.101.486.102.291 0 .459-.093c.169-.093.298-.212.383-.347q.127-.203.128-.323a.09.09 0 0 0-.028-.065.1.1 0 0 0-.071-.03m-3.426-3.272a.55.55 0 0 1 .355-.128.6.6 0 0 1 .329.084q.146.086.178.19.068.24.069.366 0 .253-.081.388a.77.77 0 0 1-.353.293l-.04.02-.032-.029c-.236-.195-.393-.358-.48-.498a.6.6 0 0 1-.106-.328.44.44 0 0 1 .158-.358m1.155 3.376q-.353.336-.792.337a.9.9 0 0 1-.453-.118 1.3 1.3 0 0 1-.346-.266 1.5 1.5 0 0 1-.256-.416.8.8 0 0 1-.068-.328.76.76 0 0 1 .17-.482q.166-.204.44-.316l.044-.019.033.038c.223.244.448.5.66.76l.42.51q.038.051.08.095a.5.5 0 0 1 .083.119l.025.047-.04.037z"/><path fill="#008034" d="M185.16 23.998c0 11.63-9.36 21.058-20.905 21.058s-20.902-9.429-20.902-21.058c0-11.63 9.36-21.058 20.905-21.058s20.905 9.428 20.905 21.058"/><path fill="url(#c)" d="M185.16 23.998c0 11.63-9.36 21.058-20.905 21.058s-20.902-9.429-20.902-21.058c0-11.63 9.36-21.058 20.905-21.058s20.905 9.428 20.905 21.058"/><path fill="url(#d)" d="M164.258 46.689c-12.421 0-22.527-10.178-22.527-22.69 0-12.51 10.106-22.688 22.527-22.688S186.782 11.488 186.782 24c0 12.511-10.103 22.689-22.524 22.689m0-44.068c-11.702 0-21.219 9.591-21.219 21.379s9.517 21.379 21.219 21.379 21.217-9.591 21.217-21.38c0-11.787-9.517-21.378-21.217-21.378"/><path fill="url(#e)" d="M176.684 32.972c.054.03.151.089.125.182q-.022.087-.155.088a1 1 0 0 1-.078-.007 6.3 6.3 0 0 0-1.58-.19c-2.838 0-6.507 2.154-9.446 4.3a39 39 0 0 1 1.819 1.612c.087-.077.117-.098.201-.168.261-.218.51-.37.76-.46q.226-.084.446-.038c.282.059.466.338.436.666-.026.281-.218.498-.448.507a.48.48 0 0 1-.437-.246 6 6 0 0 0-.316.274q-.07.066-.134.133l.182.16c.144.126.282.25.423.368.277.233.58.468.919.619.107.046.246.102.377.09.065-.004.134-.025.207-.046l.051-.014s.015-.005.021-.01c.042-.018.084-.039.134-.048q.028-.005.063-.007a.28.28 0 0 1 .249.147.55.55 0 0 1 .045.377.6.6 0 0 1-.135.237 1.21 1.21 0 0 1-.967.437q-.087 0-.176-.009a2.3 2.3 0 0 1-.749-.223 6.2 6.2 0 0 1-1.258-.808l-.373-.3a14 14 0 0 1-.378.354c-.153.137-.342.29-.58.372a.6.6 0 0 1-.208.035q-.04.001-.081-.005a.5.5 0 0 1-.097-.016c-.203-.04-.365-.228-.404-.465-.039-.252.054-.5.233-.622.175-.116.393-.093.557.063q.033.032.06.068.145-.147.286-.307c-.614-.559-1.404-1.134-2.12-1.704-.71.57-1.455 1.145-2.07 1.703q.142.162.287.308a.4.4 0 0 1 .06-.068c.163-.153.383-.179.556-.063.179.119.273.368.234.622-.037.237-.202.423-.405.465l-.096.016-.081.005a.6.6 0 0 1-.208-.035 1.7 1.7 0 0 1-.58-.372 15 15 0 0 1-.379-.354l-.372.3c-.453.36-.855.62-1.259.808-.272.125-.517.2-.749.223a1.5 1.5 0 0 1-.346 0 1.2 1.2 0 0 1-.796-.428.56.56 0 0 1-.135-.237.55.55 0 0 1 .041-.377.28.28 0 0 1 .312-.14c.052.01.095.03.134.049l.021.009.051.014c.075.021.146.04.209.047.131.011.272-.045.376-.091.34-.151.645-.386.919-.62q.212-.177.423-.367l.183-.16-.134-.133a5 5 0 0 0-.317-.274.48.48 0 0 1-.437.246c-.228-.01-.423-.226-.448-.507-.03-.328.155-.607.437-.666a.8.8 0 0 1 .446.038c.249.093.499.242.76.46.082.07.112.091.201.168a37 37 0 0 1 1.824-1.608c-2.938-2.148-6.609-4.305-9.45-4.305-.551 0-1.083.066-1.58.191a.4.4 0 0 1-.078.007q-.13 0-.155-.088c-.025-.093.075-.152.125-.182.177-.104 1.164-.493 2.718-.493 2.191 0 5.496.635 9.695 3.735l.086.067.019-.014c4.199-3.102 7.558-3.788 9.748-3.788 1.554 0 2.541.389 2.718.493m-11.244-1.33c-.255.425-.606 1.588-.606 1.605.372-.303 1.487-.53 1.966-.633 3.421-.742 3.634-3.865 3.737-4.477-.09.175-.332.542-2.425.638-1.095.05-2.913.186-3.858 1.994q.245.5.391 1.114c1.174-2.822 4.072-2.436 4.564-2.54-.49.213-2.589.318-3.772 2.298m-1.287 3.307.516-.256c-.125-5.536-3.103-5.85-4.542-5.917-2.093-.096-2.335-.466-2.423-.638.102.612.317 3.735 3.738 4.477.487.107 1.212.207 1.561.519-.399-3.618-3.372-3.528-3.971-3.79.564.118 4.8-.782 4.604 5.349zm-1.737-15.946c-.092-1.585 1.707-4.4 1.707-4.4s1.726 2.885 1.708 4.4c-.015 1.094-.765 1.98-1.708 1.98-.942 0-1.641-.889-1.707-1.98m2.449 1.298a1.4 1.4 0 0 1-.242.023c-.894 0-1.618-.84-1.618-1.875 0-.149.035-.34.09-.558-.175.465-.302.89-.302 1.154 0 .845.591 1.53 1.319 1.53.279 0 .541-.102.753-.274m-5.433 4.554c0 3.155 4.453 4.163 4.453 4.163v-.98c0-3.274-4.453-4.163-4.453-4.163zm4.913 3.185v.98s4.454-1.007 4.454-4.163v-.98s-4.454.89-4.454 4.163m-3.79-6.736c0 2.567 3.386 3.386 3.386 3.386v-.796c0-2.662-3.386-3.386-3.386-3.386zm3.735 2.59v.796s3.386-.82 3.386-3.386v-.796s-3.386.722-3.386 3.384m-12.014-8.051c2.94-2.976 4.83-3.505 7.183-3.877-2.409 1.54-4.658 5.122-3.958 7.644 1.273-2.676 3.492-5.29 5.541-6.243-1.157 1.636-1.197 3.674-.08 5.412.258-2.257 1.828-4.425 3.141-5.88 1.312 1.452 2.882 3.623 3.139 5.88 1.115-1.74 1.079-3.776-.081-5.412 2.049.952 4.269 3.567 5.541 6.243.703-2.522-1.55-6.103-3.956-7.644 2.351.37 4.241.9 7.181 3.877-.97-3.982-4.388-5.361-7.122-5.852 3.008-.26 3.604.049 6.261 1.156-2.883-2.855-4.904-3.37-7.792-3.092.494-.435.968-.67 1.696-.863-1.211-.48-3.107-.229-3.844.484 0 0-.145-1.308-1.014-1.836v-.012l-.009.007-.01-.007v.012c-.868.528-1.013 1.836-1.013 1.836-.738-.713-2.634-.964-3.844-.484.727.193 1.201.428 1.696.863-2.888-.277-4.909.237-7.792 3.092 2.656-1.107 3.252-1.415 6.259-1.156-2.732.49-6.149 1.87-7.121 5.852"/></g></g><defs><linearGradient id="d" x1="146.693" x2="186.595" y1="33.403" y2="12.351" gradientUnits="userSpaceOnUse"><stop stop-color="#c68d00"/><stop offset=".25" stop-color="#ffd740"/><stop offset=".34" stop-color="#f4c833"/><stop offset=".51" stop-color="#d7a313"/><stop offset=".6" stop-color="#c68d00"/><stop offset="1" stop-color="#ffd740"/></linearGradient><linearGradient id="e" x1="157.979" x2="170.677" y1="7.219" y2="42.279" gradientUnits="userSpaceOnUse"><stop stop-color="#c68d00"/><stop offset=".05" stop-color="#d2a32a"/><stop offset=".1" stop-color="#dfb955"/><stop offset=".16" stop-color="#eacc78"/><stop offset=".22" stop-color="#f2da94"/><stop offset=".27" stop-color="#f8e4a8"/><stop offset=".33" stop-color="#fbeab4"/><stop offset=".39" stop-color="#fdedb8"/><stop offset=".58" stop-color="#fdedb8"/><stop offset=".65" stop-color="#f5e09f"/><stop offset=".79" stop-color="#e3c061"/><stop offset="1" stop-color="#c68d00"/></linearGradient><radialGradient id="c" cx="0" cy="0" r="1" gradientTransform="matrix(22.866 0 0 22.1121 163.171 22.743)" gradientUnits="userSpaceOnUse"><stop stop-opacity="0"/><stop offset=".12" stop-opacity="0"/><stop offset=".15" stop-opacity="0"/><stop offset=".87" stop-opacity=".292"/><stop offset="1"/></radialGradient></defs></svg>