<?xml version="1.0" encoding="UTF-8" standalone="no"?>
<svg
   width="300"
   height="126.19048"
   viewBox="0 0 300 126.19048"
   fill="none"
   version="1.1"
   id="svg12"
   sodipodi:docname="Logo.9759c558.svg"
   inkscape:version="1.3.2 (091e20e, 2023-11-25, custom)"
   xmlns:inkscape="http://www.inkscape.org/namespaces/inkscape"
   xmlns:sodipodi="http://sodipodi.sourceforge.net/DTD/sodipodi-0.dtd"
   xmlns="http://www.w3.org/2000/svg"
   xmlns:svg="http://www.w3.org/2000/svg">
  <sodipodi:namedview
     id="namedview12"
     pagecolor="#ffffff"
     bordercolor="#999999"
     borderopacity="1"
     inkscape:showpageshadow="2"
     inkscape:pageopacity="0"
     inkscape:pagecheckerboard="0"
     inkscape:deskcolor="#d1d1d1"
     inkscape:zoom="1.484127"
     inkscape:cx="192.70588"
     inkscape:cy="120.60963"
     inkscape:window-width="1500"
     inkscape:window-height="912"
     inkscape:window-x="-8"
     inkscape:window-y="-8"
     inkscape:window-maximized="1"
     inkscape:current-layer="svg12" />
  <g
     clip-path="url(#clip0_36_591)"
     id="g12"
     transform="scale(1.1904762)">
    <path
       d="m 31.6056,18.4549 c -0.4725,-0.2328 -0.8878,-0.704 -0.4124,-1.3456 0.3293,-0.4457 0.8276,-0.3549 0.8276,-0.3549 h 12.7115 c 0,0 2.4828,0.1193 3.9002,1.0589 1.4175,0.934 2.1878,1.9928 2.6031,3.222 0.4123,1.2292 0.2949,3.1624 0.2949,3.1624 L 50.113,41.0146 48.0426,63.634 c 0,0 -0.2233,2.2796 0.6472,3.8097 0.7703,1.3512 2.1907,2.1092 3.1929,2.4612 1.0052,0.3492 3.6626,0.8772 3.6626,0.8772 0,0 0.7102,0.2356 0.7102,0.7068 0,0.4713 -0.1174,0.7041 -0.5899,0.9936 -0.4754,0.2924 -0.945,0.2924 -0.945,0.2924 H 41.422 c 0,0 -2.1534,0.0823 -4.1981,-1.8736 -1.7754,-1.6976 -1.7754,-4.3348 -1.7754,-4.3348 l 0.0601,-2.5805 3.6053,-38.0282 c 0,0 0.0229,-2.254 -0.5297,-3.3981 -0.6501,-1.3484 -1.1226,-1.8735 -2.6603,-2.5776 -1.2228,-0.562 -4.3155,-1.5244 -4.3155,-1.5244"
       fill="#FFFFFF"
       id="path1"
       style="fill:#00000e;fill-opacity:1" />
    <path
       d="m 83.5828,18.3783 c -0.4753,-0.2328 -0.8877,-0.7012 -0.4123,-1.3484 0.3293,-0.4457 0.8275,-0.352 0.8275,-0.352 h 12.7116 c 0,0 2.4799,0.1192 3.8974,1.056 1.423,0.9368 2.191,1.99 2.603,3.222 0.412,1.2321 0.298,3.1653 0.298,3.1653 l -1.421,16.8197 -2.067,22.6166 c 0,0 -0.2235,2.2795 0.647,3.8068 0.77,1.3456 2.053,2.1291 3.058,2.4811 1.006,0.352 3.798,0.8601 3.798,0.8601 0,0 0.667,0.2811 0.667,0.7495 0,0.4684 -0.086,0.7324 -0.561,1.0248 -0.476,0.2952 -0.931,0.2185 -0.931,0.2185 H 93.3935 c 0,0 -2.1505,0.0795 -4.1952,-1.8764 -1.7754,-1.7004 -1.7754,-4.3348 -1.7754,-4.3348 l 0.0601,-2.5776 3.6053,-38.0311 c 0,0 -0.1117,-2.0014 -0.6672,-3.1454 -0.6472,-1.3484 -1.4747,-2.2284 -2.5257,-2.8331 -1.1683,-0.67 -4.3154,-1.5216 -4.3154,-1.5216"
       fill="#FFFFFF"
       id="path2"
       style="fill:#00000e;fill-opacity:1" />
    <path
       d="M 109.931,1.87359 C 109.519,1.52159 109.344,1.22635 109.519,0.701178 109.753,0 110.704,0.0596144 110.704,0.0596144 L 123.53,0 c 0,0 3.491,0.0596144 5.378,1.69759 1.89,1.64081 2.188,2.9864 2.251,4.21843 0.06,1.22919 -1.068,14.76728 -1.068,14.76728 0,0 -0.118,0.8205 0.12,0.8205 0.238,0 2.007,-0.9368 3.545,-1.5812 1.535,-0.6445 5.378,-1.7573 8.751,-1.5216 3.365,0.2327 7.858,0.6444 12.941,4.2184 5.086,3.574 6.801,7.5597 8.161,11.6021 1.357,4.0424 1.297,9.0841 1.297,9.0841 0,0 0.121,5.2148 -1.417,10.6057 -1.535,5.388 -4.078,8.6128 -4.078,8.6128 0,0 -1.715,2.8132 -5.438,5.8592 -3.725,3.0489 -8.218,4.5137 -8.218,4.5137 0,0 -4.554,1.5216 -9.519,1.4648 -4.963,-0.0596 -8.737,-1.0872 -12.291,-2.694 -4.023,-1.8168 -6.56,-5.3937 -6.56,-5.3937 0,0 -2.606,-3.4576 -2.961,-4.8032 -0.352,-1.3484 -0.235,-1.9332 0.063,-2.2284 0.292,-0.2924 0.707,-0.1136 0.882,0.0568 0.18,0.176 2.016,1.936 2.955,2.6372 0.951,0.7068 2.428,1.9928 5.143,2.9892 2.721,0.9964 5.263,1.6948 8.101,1.9332 2.835,0.2328 6.973,-0.4059 9.871,-1.9332 2.898,-1.5244 5.911,-4.454 6.976,-6.0352 1.068,-1.5841 2.898,-3.9857 4.141,-9.4929 1.237,-5.5072 0.824,-8.6129 0.824,-8.6129 0,0 -0.063,-4.4568 -2.425,-9.7881 -2.689,-6.0693 -8.511,-7.2644 -8.511,-7.2644 0,0 -2.583,-0.6416 -5.32,-0.2328 -2.363,0.3492 -5.143,2.1092 -6.209,3.574 -1.062,1.4648 -1.182,2.5776 -1.477,4.9225 -0.135,1.0702 -1.776,17.1689 -1.776,17.1689 0,0 -0.174,3.4576 0.06,4.6868 0.238,1.2321 0.945,3.2221 1.776,3.9857 0.83,0.7636 1.541,0.88 1.478,1.3484 -0.061,0.4684 -0.645,1.1156 -1.535,1.2888 -0.888,0.176 -2.721,0.2328 -5.086,-0.352 -2.363,-0.5848 -4.848,-1.814 -6.798,-4.5704 -1.95,-2.7565 -2.603,-5.0417 -2.898,-7.9685 -0.292,-2.9353 1.537,-20.8026 1.537,-20.8026 l 1.833,-18.4577 c 0,0 -0.063,-2.2256 -1.775,-3.86642 -1.713,-1.64081 -4.436,-2.10921 -4.436,-2.10921 0,0 -1.478,-0.11923 -1.893,-0.4684"
       fill="#FFFFFF"
       id="path3"
       style="fill:#00000e;fill-opacity:1" />
    <path
       d="m 204.874,21.3277 c 0,0 2.777,-0.528 5.08,-0.4117 2.308,0.1193 4.613,0.5848 5.853,1.1157 1.24,0.5252 2.305,0.8772 2.717,1.0532 0.416,0.176 1.183,0.176 1.303,-0.4684 0.115,-0.6444 -0.475,-1.1724 -1.42,-1.8765 -0.942,-0.7011 -4.965,-3.2191 -8.393,-4.0424 -3.428,-0.8204 -6.148,-0.9964 -9.636,-0.8204 -3.485,0.176 -10.037,1.885 -14.129,4.102 -5.281,2.8644 -9.278,7.1793 -10.759,9.7825 -1.595,2.8132 -3.674,6.1459 -4.195,12.9533 -0.412,5.3909 0.235,10.6057 2.305,14.5885 2.429,4.6868 6.266,9.2601 10.407,11.6021 4.135,2.3448 10.045,4.6272 16.311,4.5108 6.268,-0.1164 12.651,-2.5776 15.784,-5.0956 3.133,-2.5208 3.221,-2.887 3.37,-3.5172 0.235,-0.9936 -0.352,-1.2292 -0.824,-1.2292 -0.473,0 -0.828,0.2952 -2.251,0.9964 -1.418,0.704 -4.255,1.584 -6.326,1.8764 -2.065,0.2924 -5.676,0.5877 -10.048,-0.88 -4.376,-1.4648 -8.099,-4.8657 -8.099,-4.8657 0,0 -3.49,-3.398 -4.968,-7.3808 -1.48,-3.9856 -1.36,-9.4929 -1.36,-9.4929 0,0 0.117,-6.7392 3.25,-11.3068 3.133,-4.5705 5.318,-6.3532 8.866,-8.4397 3.488,-2.0496 7.153,-2.7536 7.153,-2.7536"
       fill="#FFFFFF"
       id="path4"
       style="fill:#00000e;fill-opacity:1" />
    <path
       d="m 57.7188,18.3839 c -0.4782,-0.2328 -0.8877,-0.7012 -0.4181,-1.3484 0.3293,-0.4457 0.8305,-0.3492 0.8305,-0.3492 h 12.7115 c 0,0 2.4799,0.1164 3.8974,1.056 1.4203,0.9368 2.1906,1.9929 2.603,3.222 0.4152,1.2292 0.2949,3.1653 0.2949,3.1653 l -1.4175,16.8169 -2.0703,22.6166 c 0,0 -0.2205,2.2795 0.6529,3.8096 0.7703,1.3484 2.1849,2.112 3.19,2.4641 1.0051,0.3491 3.6683,0.88 3.6683,0.88 0,0 0.7073,0.2299 0.7073,0.7012 0,0.4712 -0.1145,0.704 -0.587,0.9964 -0.4754,0.2924 -0.9508,0.2924 -0.9508,0.2924 H 67.5295 c 0,0 -2.1534,0.0823 -4.198,-1.8765 -1.7726,-1.6976 -1.7726,-4.3348 -1.7726,-4.3348 l 0.0601,-2.5776 3.6053,-38.0283 c 0,0 0.0172,-2.2568 -0.5298,-3.4008 -0.6529,-1.3456 -1.1225,-1.8736 -2.6631,-2.5748 -1.2256,-0.5621 -4.3126,-1.5244 -4.3126,-1.5244"
       fill="#FFFFFF"
       id="path5"
       style="fill:#00000e;fill-opacity:1" />
    <path
       d="m 83.4912,18.3839 c -0.4753,-0.2328 -0.8848,-0.7012 -0.4123,-1.3484 0.3264,-0.4457 0.8247,-0.3492 0.8247,-0.3492 h 12.7115 c 0,0 2.4856,0.1164 3.8999,1.056 1.421,0.9368 2.188,1.9929 2.603,3.222 0.413,1.2292 0.298,3.1653 0.298,3.1653 l -1.42,16.8169 -2.0677,22.6166 c 0,0 -0.2205,2.2795 0.6497,3.8096 0.768,1.3484 2.188,2.112 3.193,2.4641 1,0.3491 3.663,0.88 3.663,0.88 0,0 0.707,0.2299 0.707,0.7012 0,0.4712 -0.117,0.704 -0.59,0.9964 -0.472,0.2924 -0.945,0.2924 -0.945,0.2924 H 93.3019 c 0,0 -2.1534,0.0823 -4.1951,-1.8765 -1.7726,-1.6976 -1.7726,-4.3348 -1.7726,-4.3348 l 0.0572,-2.5776 3.6082,-38.0283 c 0,0 0.02,-2.2568 -0.5326,-3.4008 -0.6472,-1.3456 -1.1226,-1.8736 -2.6575,-2.5748 -1.2256,-0.5621 -4.3154,-1.5244 -4.3154,-1.5244"
       fill="#FFFFFF"
       id="path6"
       style="fill:#00000e;fill-opacity:1" />
    <path
       d="m 0,81.8618 h 252 c 0,0 -69.543,5.6719 -128.272,5.6719 C 64.9981,87.5337 0,81.8618 0,81.8618 Z"
       fill="#FFFFFF"
       id="path7"
       style="fill:#00000e;fill-opacity:1" />
    <path
       d="m 75.4961,101.469 v -1.297 l 5.6527,-0.009 v 4.111 c -0.8676,0.573 -1.7611,1.005 -2.686,1.294 -0.9221,0.29 -1.87,0.432 -2.8379,0.432 -1.3115,0 -2.5028,-0.23 -3.5795,-0.693 -1.0681,-0.471 -1.8756,-1.141 -2.4197,-2.024 -0.5498,-0.883 -0.8219,-1.868 -0.8219,-2.949 0,-1.0819 0.2692,-2.0839 0.8133,-3.0151 0.5469,-0.9339 1.3287,-1.6294 2.3453,-2.0865 1.0252,-0.4542 2.1964,-0.6784 3.5251,-0.6784 0.9707,0 1.8356,0.1305 2.6145,0.3945 0.7846,0.2555 1.3974,0.6161 1.8384,1.0816 0.4438,0.4627 0.7789,1.0646 1.0108,1.8083 l -1.5921,0.3662 c -0.2062,-0.5677 -0.4525,-1.0077 -0.7503,-1.3285 -0.2949,-0.3236 -0.7216,-0.582 -1.2743,-0.7693 -0.5527,-0.1959 -1.1626,-0.2953 -1.8356,-0.2953 -0.8104,0 -1.5091,0.1022 -2.0961,0.3095 -0.5871,0.2015 -1.0653,0.4684 -1.4261,0.8005 -0.3551,0.3321 -0.6357,0.6983 -0.8333,1.0986 -0.3408,0.687 -0.5155,1.4279 -0.5155,2.2259 0,0.988 0.2034,1.811 0.6129,2.475 0.4123,0.667 1.0108,1.158 1.7926,1.482 0.7846,0.321 1.6179,0.483 2.497,0.483 0.7646,0 1.5092,-0.12 2.2394,-0.364 0.7273,-0.247 1.2771,-0.511 1.658,-0.783 v -2.064 h -3.926 z"
       fill="#FFFFFF"
       id="path8"
       style="fill:#00000e;fill-opacity:1" />
    <path
       d="m 96.3631,99.6268 h 3.7969 c 0.808,0 1.441,-0.0681 1.893,-0.2072 0.453,-0.1391 0.805,-0.3577 1.04,-0.6614 0.24,-0.3066 0.358,-0.6388 0.358,-0.9993 0,-0.5223 -0.232,-0.951 -0.693,-1.2916 -0.456,-0.335 -1.18,-0.5025 -2.168,-0.5025 h -4.2269 v 3.6592 z m -1.764,6.1862 V 94.7441 h 5.9159 c 1.192,0 2.096,0.0994 2.715,0.301 0.619,0.193 1.114,0.545 1.483,1.0475 0.373,0.5053 0.559,1.0588 0.559,1.6692 0,0.792 -0.307,1.4506 -0.922,1.9871 -0.613,0.5391 -1.564,0.8831 -2.838,1.0281 0.464,0.184 0.819,0.369 1.065,0.55 0.518,0.395 1.002,0.883 1.466,1.476 l 2.317,3.012 h -2.219 l -1.767,-2.302 c -0.519,-0.664 -0.939,-1.172 -1.275,-1.527 -0.335,-0.346 -0.635,-0.593 -0.899,-0.738 -0.2603,-0.142 -0.5294,-0.239 -0.8043,-0.293 -0.1976,-0.037 -0.5269,-0.051 -0.9823,-0.051 H 96.366 v 4.914 h -1.764 z"
       fill="#FFFFFF"
       id="path9"
       style="fill:#00000e;fill-opacity:1" />
    <path
       d="m 120.137,100.442 c 0,1.334 0.426,2.384 1.291,3.156 0.868,0.767 1.959,1.147 3.265,1.147 1.306,0 2.419,-0.383 3.276,-1.164 0.859,-0.775 1.294,-1.879 1.294,-3.298 0,-0.9003 -0.186,-1.6866 -0.558,-2.3594 -0.364,-0.6728 -0.9,-1.1923 -1.61,-1.5614 -0.704,-0.3718 -1.494,-0.5564 -2.374,-0.5592 -1.254,0 -2.333,0.3577 -3.235,1.0731 -0.897,0.7125 -1.346,1.8963 -1.346,3.5659 m -1.822,-0.023 c 0,-1.8397 0.596,-3.2761 1.784,-4.3094 1.192,-1.0447 2.724,-1.5642 4.605,-1.5642 1.234,0 2.345,0.2441 3.336,0.7296 0.994,0.4882 1.741,1.1724 2.26,2.0467 0.521,0.8715 0.784,1.8594 0.784,2.9663 0,1.107 -0.272,2.129 -0.822,3.015 -0.547,0.886 -1.32,1.556 -2.319,2.016 -1.002,0.454 -2.082,0.681 -3.242,0.681 -1.257,0 -2.377,-0.25 -3.367,-0.75 -0.991,-0.508 -1.739,-1.192 -2.245,-2.063 -0.516,-0.869 -0.768,-1.794 -0.768,-2.765"
       fill="#FFFFFF"
       id="path10"
       style="fill:#00000e;fill-opacity:1" />
    <path
       d="m 152.931,94.7415 h 1.764 v 6.3985 c 0,1.11 -0.152,1.996 -0.453,2.646 -0.306,0.656 -0.856,1.192 -1.649,1.604 -0.788,0.406 -1.824,0.61 -3.116,0.61 -1.291,0 -2.271,-0.176 -3.064,-0.536 -0.796,-0.358 -1.366,-0.875 -1.704,-1.548 -0.34,-0.678 -0.512,-1.606 -0.512,-2.776 v -6.3985 h 1.764 v 6.3845 c 0,0.962 0.109,1.672 0.32,2.132 0.218,0.451 0.59,0.803 1.112,1.053 0.529,0.244 1.171,0.369 1.93,0.369 1.3,0 2.225,-0.247 2.78,-0.732 0.55,-0.489 0.828,-1.428 0.828,-2.819 v -6.3847 z"
       fill="#FFFFFF"
       id="path11"
       style="fill:#00000e;fill-opacity:1" />
    <path
       d="m 170.221,100.002 h 3.448 c 1.143,0 1.956,-0.1706 2.437,-0.5226 0.478,-0.3577 0.716,-0.8517 0.716,-1.4932 0,-0.4599 -0.14,-0.8573 -0.424,-1.1838 -0.283,-0.335 -0.65,-0.5507 -1.111,-0.6586 -0.301,-0.0624 -0.848,-0.0993 -1.647,-0.0993 h -3.416 v 3.9544 z m -1.769,5.808 V 94.7415 h 5.037 c 0.884,0 1.56,0.034 2.03,0.1022 0.656,0.0908 1.203,0.264 1.646,0.5223 0.444,0.2498 0.799,0.6046 1.066,1.0645 0.275,0.4571 0.409,0.9595 0.409,1.5131 0,0.9425 -0.361,1.7402 -1.082,2.3934 -0.722,0.65 -2.025,0.973 -3.915,0.973 h -3.422 v 4.503 h -1.769 z"
       fill="#FFFFFF"
       id="path12"
       style="fill:#00000e;fill-opacity:1" />
  </g>
  <defs
     id="defs12">
    <clipPath
       id="clip0_36_591">
      <rect
         width="252"
         height="106"
         fill="#ffffff"
         id="rect12"
         x="0"
         y="0" />
    </clipPath>
  </defs>
</svg>
