<svg xmlns="http://www.w3.org/2000/svg" viewBox="0 0 1802 1802">

<g transform="translate(280,340)">
<g transform="translate(0.000000,1122.000000) scale(0.100000,-0.100000)" fill="#D4AF37" stroke="none">
<path d="M6216 11142 c-21 -37 -53 -92 -71 -122 -18 -30 -43 -75 -55 -100 -12
-25 -62 -110 -110 -190 -48 -80 -99 -167 -113 -195 -13 -27 -48 -88 -77 -135
-29 -47 -65 -110 -80 -140 -15 -30 -51 -93 -80 -140 -29 -47 -64 -107 -77
-135 -14 -27 -46 -84 -71 -125 -26 -41 -72 -122 -103 -180 -30 -58 -75 -139
-99 -180 -24 -41 -64 -113 -90 -160 -26 -47 -66 -118 -88 -157 -23 -40 -59
-103 -81 -140 -21 -38 -58 -102 -81 -143 -24 -41 -69 -122 -100 -180 -31 -58
-71 -130 -90 -160 -18 -30 -55 -93 -80 -140 -26 -47 -66 -119 -90 -160 -24
-41 -69 -122 -100 -180 -31 -58 -76 -139 -100 -180 -24 -41 -64 -113 -90 -160
-25 -47 -62 -110 -80 -140 -19 -30 -59 -102 -90 -160 -31 -58 -76 -139 -100
-180 -24 -41 -65 -114 -92 -162 -26 -49 -70 -128 -98 -178 -27 -49 -72 -129
-98 -177 -27 -49 -64 -113 -82 -143 -19 -30 -59 -102 -90 -160 -31 -58 -76
-139 -100 -180 -24 -41 -64 -113 -90 -160 -26 -47 -65 -116 -87 -155 -99 -172
-129 -226 -176 -310 -161 -291 -212 -381 -245 -435 -12 -19 -22 -40 -22 -46 0
-6 -32 -65 -72 -130 -40 -66 -98 -166 -129 -224 -102 -190 -154 -284 -197
-354 -23 -37 -42 -73 -42 -78 0 -5 -8 -22 -19 -36 -10 -15 -38 -65 -61 -112
-24 -47 -60 -111 -81 -142 -22 -31 -39 -63 -39 -70 0 -8 -4 -18 -9 -24 -6 -5
-29 -43 -52 -84 -23 -41 -60 -106 -82 -145 -22 -38 -66 -117 -97 -175 -76
-140 -148 -269 -200 -360 -41 -70 -70 -123 -217 -395 -33 -60 -79 -144 -103
-185 -24 -41 -65 -114 -92 -162 -26 -49 -71 -130 -100 -180 -28 -51 -81 -149
-118 -218 -37 -69 -86 -159 -110 -200 -24 -41 -73 -131 -110 -200 -37 -69 -86
-159 -110 -200 -24 -41 -64 -113 -90 -160 -26 -47 -66 -119 -90 -160 -24 -41
-64 -113 -90 -160 -26 -47 -65 -116 -87 -155 -21 -38 -44 -79 -50 -90 -12 -24
-22 -43 -86 -160 -28 -49 -75 -137 -106 -195 -60 -110 -150 -266 -182 -312
-11 -15 -19 -37 -19 -48 l0 -21 20 11 20 11 317 -1 c175 0 324 0 331 0 6 0 12
6 12 13 0 7 9 23 20 34 28 31 60 85 60 104 0 8 10 26 22 39 13 14 48 72 79
130 64 120 137 252 199 360 58 101 131 233 199 360 31 58 77 139 103 180 25
41 67 118 93 170 26 52 64 120 85 150 21 30 59 98 85 150 26 52 68 129 93 170
26 41 72 122 103 180 30 58 75 139 99 180 24 41 65 114 92 163 26 48 70 126
96 175 101 182 133 237 143 246 5 6 9 17 9 26 0 9 26 57 58 107 71 114 115
191 124 222 4 13 13 31 22 40 14 16 27 38 134 240 34 63 66 119 71 124 6 6 11
18 11 27 0 9 9 26 20 37 27 30 120 187 120 204 0 8 27 58 60 112 33 55 60 104
60 110 0 6 17 40 39 76 21 36 70 120 108 186 39 66 94 161 124 210 29 50 78
137 110 195 106 198 155 285 195 347 49 77 98 163 103 183 2 8 17 35 35 60 17
25 56 92 87 150 104 194 214 390 277 494 23 37 42 72 42 76 0 5 13 30 28 57
16 26 45 75 64 108 20 33 53 94 73 135 21 41 52 95 69 120 17 25 56 92 87 150
104 195 212 387 281 500 25 41 58 100 73 130 15 30 41 75 58 100 17 24 49 76
70 115 22 38 58 102 80 140 22 39 66 117 97 175 63 117 108 194 151 257 16 23
29 46 29 52 0 5 13 31 29 58 15 26 48 82 71 123 24 41 57 100 75 130 18 30 47
84 65 120 34 68 41 81 192 335 53 88 114 198 138 245 42 85 52 102 169 299 33
57 61 108 61 113 0 5 8 22 19 36 10 15 48 86 85 157 36 72 82 158 102 193 l36
62 13 0 14 0 34 -62 c32 -59 52 -95 159 -280 23 -40 67 -120 98 -178 73 -135
146 -267 197 -355 99 -172 129 -225 173 -305 26 -47 66 -119 90 -160 24 -41
69 -122 100 -180 31 -58 76 -139 100 -180 24 -41 64 -113 90 -160 26 -47 71
-128 100 -180 29 -52 79 -142 110 -200 31 -58 81 -148 110 -200 29 -52 79
-142 110 -200 78 -143 149 -270 200 -360 52 -90 122 -216 203 -365 131 -242
176 -324 227 -415 29 -52 79 -142 110 -200 31 -58 80 -147 109 -197 28 -51 74
-135 102 -185 29 -51 78 -140 109 -198 55 -102 109 -198 213 -385 27 -49 80
-146 117 -215 37 -69 99 -183 137 -255 73 -135 155 -286 240 -440 27 -49 54
-100 61 -112 7 -13 17 -33 24 -45 7 -13 42 -79 79 -148 36 -69 93 -174 126
-235 88 -160 172 -315 240 -440 57 -104 100 -182 216 -390 61 -110 148 -269
237 -435 37 -69 95 -177 130 -240 35 -63 93 -171 130 -240 93 -173 178 -328
240 -440 29 -52 88 -160 130 -240 42 -80 101 -188 130 -240 29 -52 83 -151
120 -220 37 -69 94 -174 127 -235 33 -60 83 -152 111 -203 28 -51 55 -98 60
-105 5 -7 12 -24 15 -38 4 -14 16 -38 28 -52 l20 -27 303 0 302 0 11 11 12 12
-10 26 c-6 14 -21 36 -35 49 -13 13 -47 67 -74 120 -27 53 -56 108 -63 122 -7
14 -24 45 -37 70 -13 25 -43 81 -66 125 -24 44 -44 88 -44 99 l0 19 -32 37
c-38 43 -113 173 -122 210 -3 14 -28 63 -56 110 -28 47 -53 96 -57 110 -3 14
-17 41 -30 60 -12 19 -23 40 -23 47 0 6 -10 24 -23 40 -33 41 -101 157 -139
238 -17 39 -47 90 -66 114 -36 47 -102 172 -102 193 0 7 -9 24 -20 38 -11 14
-20 32 -20 40 0 8 -12 29 -26 45 -14 17 -37 53 -51 80 -14 28 -33 61 -43 75
-9 14 -20 36 -23 50 -6 22 -43 90 -128 233 -16 27 -29 54 -29 60 0 7 -9 23
-20 37 -11 14 -20 31 -20 38 0 7 -27 53 -60 102 -33 49 -60 94 -60 100 0 14
-53 118 -90 176 -16 27 -30 53 -30 60 0 6 -40 78 -90 160 -49 82 -90 156 -90
165 0 8 -14 36 -30 63 -17 26 -44 75 -61 109 -18 34 -40 74 -50 89 -11 14 -19
32 -19 40 0 8 -13 35 -30 61 -16 26 -30 52 -30 56 0 5 -19 40 -42 77 -52 86
-139 244 -235 434 -41 80 -85 161 -97 180 -48 75 -96 160 -155 275 -54 107
-82 160 -128 245 -8 14 -31 59 -52 100 -22 41 -50 88 -64 104 -14 15 -35 51
-47 80 -12 28 -29 62 -36 76 -8 14 -32 59 -53 100 -22 41 -51 89 -65 105 -14
17 -26 37 -26 45 0 18 -32 73 -60 103 l-20 21 0 25 0 26 -20 33 c-11 19 -29
43 -40 55 -11 11 -20 28 -20 36 0 19 -32 73 -60 104 -11 11 -20 28 -20 36 0 9
-9 27 -20 41 -11 14 -20 31 -20 38 0 7 -17 39 -39 70 -21 31 -61 102 -89 157
-27 55 -72 136 -99 181 -28 44 -53 91 -56 105 -3 13 -40 80 -81 149 -42 69
-76 132 -76 140 0 9 -4 20 -9 25 -13 13 -79 130 -171 305 -105 198 -168 312
-218 394 -23 37 -42 73 -42 79 0 6 -23 49 -52 96 -29 47 -87 151 -129 231 -78
150 -145 271 -219 400 -24 41 -69 122 -99 180 -31 58 -77 139 -103 180 -25 41
-64 111 -86 155 -22 44 -52 94 -66 110 -14 17 -26 36 -26 43 0 8 -8 26 -19 40
-27 38 -121 229 -121 245 0 8 -14 29 -32 47 -34 36 -72 101 -188 320 -92 173
-168 312 -198 360 -12 19 -22 44 -22 54 0 18 -23 53 -70 106 -12 14 -46 72
-75 130 -29 58 -80 150 -114 205 -33 55 -61 107 -61 115 0 8 -12 29 -26 45
-14 17 -51 80 -81 140 -31 61 -73 136 -95 168 -22 32 -51 83 -65 113 -13 30
-28 54 -31 54 -4 0 -24 -31 -46 -68z M6242 8439 c-21 -38 -65 -112 -122 -204 -45 -72 -87 -145 -172 -297
-26 -49 -70 -127 -96 -175 -99 -179 -129 -230 -159 -273 -17 -25 -47 -76 -67
-115 -20 -38 -59 -108 -86 -155 -27 -47 -70 -123 -94 -170 -24 -47 -67 -123
-96 -170 -29 -47 -66 -112 -82 -145 -17 -33 -45 -80 -62 -105 -17 -25 -56 -92
-87 -150 -86 -161 -152 -279 -189 -340 -32 -52 -51 -86 -177 -315 -27 -49 -64
-115 -83 -145 -19 -30 -55 -93 -80 -140 -26 -47 -66 -119 -90 -160 -24 -41
-64 -114 -90 -162 -26 -47 -55 -94 -64 -104 -9 -9 -46 -74 -81 -144 -35 -71
-87 -163 -115 -205 -27 -43 -50 -84 -50 -92 0 -8 -13 -33 -29 -56 -49 -72
-131 -212 -231 -397 -116 -213 -215 -389 -270 -480 -19 -30 -55 -94 -82 -142
-92 -168 -145 -264 -186 -335 -48 -84 -104 -181 -163 -285 -23 -40 -60 -104
-82 -143 -22 -38 -66 -117 -97 -175 -65 -121 -122 -221 -170 -300 -61 -100
-172 -299 -269 -480 -31 -58 -70 -125 -87 -150 -17 -25 -45 -72 -62 -105 -16
-33 -53 -98 -82 -145 -29 -47 -73 -125 -97 -175 -25 -49 -74 -137 -108 -195
-34 -58 -81 -139 -105 -180 -24 -41 -57 -100 -75 -130 -18 -30 -51 -91 -74
-135 -23 -44 -64 -118 -91 -165 -27 -47 -74 -133 -105 -192 -30 -58 -77 -141
-105 -184 l-50 -77 11 -13 11 -14 19 10 19 10 326 0 327 -1 13 13 c11 11 67
108 100 173 78 153 168 319 190 350 44 62 222 365 227 387 4 13 36 73 72 133
37 61 77 130 90 155 13 25 33 56 45 70 12 14 42 66 67 115 25 50 54 102 64
117 11 14 19 32 19 40 0 7 12 27 26 43 14 17 40 57 56 90 17 33 51 94 76 135
25 41 67 113 93 160 43 80 73 133 171 303 23 39 71 128 108 197 105 196 162
299 212 380 25 41 60 104 78 140 18 36 61 112 95 170 34 58 80 137 102 175 22
39 83 142 135 230 53 88 117 203 143 255 26 52 65 121 86 152 22 31 39 63 39
70 0 7 9 24 20 38 11 14 20 31 20 38 0 14 52 94 82 126 10 11 18 27 18 35 0
15 58 117 121 211 20 30 75 132 122 225 47 94 95 181 107 195 12 14 41 63 65
110 23 47 66 123 95 170 29 47 66 112 82 145 17 33 48 85 68 115 21 30 56 93
80 140 23 47 55 103 70 125 43 63 110 176 110 185 0 5 13 30 28 57 82 138 101
172 122 213 27 53 101 177 141 237 16 23 29 48 29 55 0 7 9 24 20 38 11 14 20
30 20 37 0 6 13 33 29 60 15 26 48 82 71 123 24 41 57 100 75 130 18 30 51 91
74 135 22 44 47 91 54 105 8 14 20 38 28 54 8 16 19 31 26 33 l12 4 35 -56
c20 -30 57 -97 82 -148 26 -50 67 -126 92 -167 25 -41 67 -113 93 -160 25 -47
69 -125 96 -175 67 -121 143 -256 201 -362 27 -49 68 -122 92 -163 24 -41 69
-122 100 -180 75 -138 147 -267 200 -360 24 -41 64 -113 90 -160 26 -47 66
-119 90 -160 24 -41 69 -122 100 -180 31 -58 76 -139 100 -180 24 -41 70 -124
103 -185 166 -306 250 -458 317 -575 24 -41 69 -122 100 -180 75 -138 147
-267 200 -360 24 -41 65 -114 92 -162 26 -49 70 -127 96 -175 27 -49 68 -122
92 -163 51 -89 121 -214 201 -362 33 -60 85 -156 118 -215 55 -103 99 -183
214 -388 27 -49 76 -137 107 -195 31 -58 81 -148 110 -200 69 -124 157 -285
240 -440 36 -69 86 -159 110 -200 24 -41 74 -131 110 -200 37 -69 95 -177 130
-240 35 -63 93 -171 130 -240 88 -165 120 -221 138 -242 l15 -18 308 0 307 0
-1 46 -2 47 -33 25 -33 25 -24 47 -24 47 5 20 5 20 -35 27 -36 27 0 15 c0 9
-8 28 -19 42 -27 40 -101 189 -101 206 0 9 -18 34 -40 56 -22 22 -40 47 -40
56 0 22 -64 145 -94 179 -14 17 -26 36 -26 43 0 8 -8 26 -19 40 -10 15 -43 77
-74 137 -30 61 -66 123 -79 138 -20 23 -88 153 -113 217 -3 8 -23 44 -45 80
-61 99 -125 229 -144 291 l-17 56 -34 33 c-19 19 -35 39 -35 46 0 7 -13 34
-28 61 -16 26 -45 75 -64 108 -20 33 -57 103 -83 155 -26 52 -64 120 -85 150
-20 30 -40 66 -43 80 -3 14 -21 50 -40 81 -19 31 -40 78 -48 103 l-14 47 -33
37 c-33 36 -82 122 -97 172 -4 14 -18 38 -31 53 -13 16 -24 36 -24 46 0 9 -7
26 -15 37 -8 10 -15 27 -15 37 l0 19 -50 51 -50 51 0 15 c0 9 -18 45 -40 81
l-40 65 0 28 0 27 -38 43 c-51 56 -121 175 -143 243 -10 30 -27 67 -39 81 -11
14 -20 34 -20 44 l0 19 -10 0 c-5 0 -10 6 -10 13 0 6 -17 30 -36 52 -36 40
-84 124 -84 147 0 7 -28 58 -61 113 -34 55 -75 127 -91 160 -17 33 -45 80 -62
105 -17 25 -61 101 -97 170 -126 238 -185 345 -231 420 -25 41 -78 138 -117
215 -40 77 -92 176 -116 220 -25 44 -45 87 -45 95 0 8 -12 29 -26 45 -14 17
-44 64 -65 105 -22 41 -62 113 -89 160 -27 47 -74 132 -104 190 -29 58 -77
143 -106 190 -29 47 -68 117 -87 155 -19 39 -41 77 -48 85 -7 8 -31 49 -52 90
-64 122 -120 219 -137 236 -20 19 -41 60 -49 94 -3 14 -49 97 -102 184 -52 87
-95 163 -95 167 0 5 -13 30 -30 56 -16 26 -30 53 -30 60 0 8 -27 54 -60 103
-33 49 -60 94 -60 99 0 6 -13 32 -30 58 -16 26 -30 53 -30 60 0 8 -27 54 -60
103 -33 49 -60 95 -60 103 0 7 -4 17 -9 23 -6 5 -28 42 -50 82 -23 39 -60 105
-82 145 -23 39 -54 94 -70 122 l-28 49 6 28 6 28 -17 0 -17 0 -17 -31z M6195 5633 c-42 -66 -96 -162 -151 -268 -26 -49 -60 -110 -77 -135
-17 -24 -48 -75 -69 -112 -39 -69 -88 -157 -161 -283 -22 -38 -61 -108 -87
-155 -26 -47 -66 -119 -90 -160 -23 -41 -60 -105 -81 -142 -22 -38 -58 -101
-80 -140 -23 -40 -60 -104 -82 -143 -22 -38 -61 -108 -87 -155 -26 -47 -70
-125 -97 -175 -28 -49 -72 -131 -99 -180 -27 -50 -59 -104 -70 -120 -42 -60
-113 -183 -164 -285 -29 -58 -87 -161 -128 -230 -42 -69 -97 -163 -123 -210
-25 -47 -69 -125 -96 -175 -27 -49 -72 -128 -100 -175 -29 -47 -53 -91 -55
-97 l-3 -13 1605 0 1606 0 22 -20 c12 -12 49 -74 82 -138 33 -64 81 -153 107
-197 99 -172 128 -224 183 -325 31 -58 71 -130 90 -160 18 -30 55 -93 80 -140
45 -81 97 -174 200 -360 26 -47 66 -119 90 -160 24 -41 70 -123 102 -182 32
-60 86 -159 119 -220 34 -62 84 -156 112 -208 27 -52 57 -103 65 -112 l15 -18
302 0 303 0 5 13 c7 18 -21 97 -47 132 -22 29 -40 62 -155 275 -73 134 -116
205 -140 231 -11 12 -25 35 -31 53 -28 75 -54 126 -81 157 l-29 34 0 25 0 25
-21 34 c-11 19 -27 41 -35 49 -8 8 -28 40 -44 72 -16 32 -35 64 -43 71 -23 24
-77 107 -77 119 0 7 -8 24 -19 38 -45 64 -101 196 -101 239 l0 22 -36 27 -36
28 -35 70 c-20 39 -44 83 -54 98 -11 14 -19 31 -19 37 0 6 -21 44 -47 85 -69
107 -135 224 -147 260 -11 30 -29 64 -107 196 -21 36 -49 90 -63 122 -14 31
-30 59 -36 63 -6 3 -24 32 -40 63 -16 31 -37 71 -46 87 -9 17 -22 39 -27 50
-6 11 -29 52 -51 90 -76 135 -135 250 -136 266 0 8 -9 25 -20 36 -10 12 -42
61 -71 110 -28 48 -65 110 -80 136 -16 27 -29 53 -29 59 0 5 -8 22 -19 36 -10
15 -39 68 -64 117 -25 50 -57 104 -71 120 -14 17 -26 37 -26 45 0 17 -32 73
-60 102 -10 11 -23 33 -29 49 -6 16 -16 42 -22 58 -6 16 -18 37 -28 47 -26 29
-81 111 -81 123 0 5 -13 32 -30 60 -16 28 -43 74 -60 102 -16 28 -30 56 -30
63 0 7 -14 34 -31 62 -18 27 -53 92 -79 144 -25 52 -74 136 -107 185 -70 105
-123 205 -123 235 l0 21 -32 47 c-17 26 -35 49 -38 52 -4 3 -29 39 -56 80 -47
71 -56 90 -91 185 l-14 40 -34 35 c-18 19 -47 63 -64 98 l-31 62 -18 0 -17 0
-30 -47z m123 -1205 c22 -40 63 -116 92 -168 29 -52 78 -142 109 -200 31 -58
67 -121 81 -140 13 -19 47 -75 74 -125 69 -128 136 -248 186 -335 24 -41 69
-122 100 -180 31 -58 76 -139 100 -180 80 -140 112 -200 108 -210 l-3 -10
-890 0 -889 0 -7 11 c-9 15 0 49 23 81 10 14 18 31 18 38 0 6 14 32 32 58 32
47 75 121 157 272 26 47 61 106 79 132 17 26 32 52 32 58 0 6 17 37 38 68 22
31 42 68 45 82 3 14 36 75 72 135 37 61 79 135 95 165 15 30 51 93 80 140 29
47 86 151 126 233 l74 147 14 0 15 0 39 -72z M3998 1743 c-9 -10 -25 -36 -36 -58 -11 -22 -43 -78 -72 -125 -29
-47 -64 -107 -77 -135 -14 -27 -54 -97 -88 -155 -34 -58 -82 -140 -106 -183
-24 -43 -62 -106 -83 -140 -41 -64 -86 -142 -166 -287 -26 -47 -66 -119 -90
-160 -24 -41 -64 -113 -89 -160 -26 -47 -68 -119 -93 -160 -42 -69 -78 -135
-78 -142 0 -2 156 -2 347 0 l348 3 14 13 c17 17 67 104 127 221 26 50 64 116
85 147 22 31 39 62 39 68 0 7 8 24 19 38 10 15 32 54 49 87 16 33 53 98 82
145 29 47 64 108 77 135 14 28 46 84 71 125 68 112 176 303 281 500 31 58 69
123 84 145 32 47 33 56 9 78 l-19 17 -310 0 -310 0 -15 -17z"/>
</g>
</g>
</svg>