<svg fill="none" height="38" width="124" xmlns="http://www.w3.org/2000/svg"><path d="m20.709 8.078s-11.016-6.378-16.828-1.103a.684.684 0 0 0 -.044.793c.058.094 1.501 2.333 4.951 2.333 1.723 0 3.094-.83 4.419-1.636 1.281-.778 2.486-1.514 3.982-1.514 1.302 0 2.402.515 3.521 1.127" fill="#a8a9cf"/><path d="m3.88 6.975c3.279-4.065 8.13-6.396 13.309-6.396 5.178 0 10.024 2.33 13.301 6.396.196.243.2.59.012.84-.063.082-1.602 2.074-4.916 2.074-1.651 0-3.013-.765-4.323-1.506-.186-.103-.37-.206-.553-.306 0 0-11.016-6.379-16.828-1.103" fill="#6b47f5"/><path d="m33.228 11.629a.676.676 0 0 0 -.659-.436c-.11.003-2.756.143-4.481 3.154-.862 1.504-.834 3.116-.802 4.675.028 1.508.056 2.927-.692 4.232-.65 1.136-1.642 1.84-2.728 2.51.01-.006 10.99-6.428 9.36-14.135" fill="#a8a9cf"/><path d="m33.228 11.629a17.337 17.337 0 0 1 -1.156 14.811 17.079 17.079 0 0 1 -12.148 8.41.675.675 0 0 1 -.728-.41c-.039-.096-.982-2.434.676-5.328.825-1.441 2.163-2.246 3.454-3.02.182-.111.363-.22.541-.33 0 0 10.991-6.425 9.362-14.135" fill="#6b47f5"/><path d="m14.68 29.046c-.862-1.504-2.261-2.285-3.617-3.037-1.31-.73-2.544-1.414-3.291-2.718-.652-1.137-.76-2.354-.793-3.636 0 .004.027 12.804 7.466 15.237a.675.675 0 0 0 .704-.357c.053-.097 1.255-2.476-.47-5.488" fill="#a8a9cf"/><path d="m14.445 34.892a17.09 17.09 0 0 1 -12.15-8.415c-2.588-4.514-3.01-9.914-1.155-14.807a.675.675 0 0 1 .716-.431c.103.014 2.582.36 4.24 3.253.826 1.441.85 3.011.869 4.525.003.214.007.426.013.636 0 0 .026 12.804 7.466 15.237" fill="#6b47f5"/><g fill="#312e52"><path d="m75.807 12.206h-2.08c-.501 0-2.567-.031-2.567-2.301 0-1.512.937-2.451 2.269-2.451 1.536 0 2.378 1.122 2.378 3.368v1.386zm2.19-1.548c0-2.977-1.352-5.038-4.382-5.038-2.378 0-4.683 1.333-4.683 4.36s2.537 4.08 4.832 4.08h2.043v.3c0 1.194-.744 2.431-2.453 2.431-.963 0-1.62-.252-3.01-.956-.754.928-.292 1.688.436 2.048a6.63 6.63 0 0 0 2.856.671c3.183.047 4.362-1.851 4.362-5.028v-2.868zm-27.573-.922c0 .773-.197 1.378-.59 1.815-.394.437-.94.655-1.64.655-.699 0-1.205-.193-1.592-.58-.387-.386-.58-.904-.58-1.553 0-.81.305-1.428.918-1.852.612-.424 1.505-.637 2.68-.637h.805v2.152zm4.234 4.341c.273.003.65-.002.918 0 .951.009 1.944.041 2.85-.299a2.211 2.211 0 0 0 1.163-.992c.45.849 1.218 1.273 2.305 1.273h5.893v-8.122c-.112-.062-.336-.112-.522-.15a2.786 2.786 0 0 0 -.543-.056c-.337 0-.61.083-.815.252-.207.17-.31.415-.31.74v5.482h-2.297c-.883 0-2.043.04-2.41-.973-.13-.362-.196-.867-.196-1.516v-3.78c-.112-.062-.336-.112-.523-.15a2.787 2.787 0 0 0 -.543-.057c-.337 0-.608.084-.815.253-.206.169-.309.415-.309.74v2.994c0 .637-.063 1.135-.187 1.497-.293.847-1.215.986-2.012 1-.599.01-1.329.02-1.924-.008-.46-.022-.994-.116-1.324-.468-.293-.312-.44-.854-.44-1.627v-4.38h-3.033c-1.787 0-3.194.384-4.225 1.151-1.03.767-1.546 1.824-1.546 3.171 0 .8.179 1.498.534 2.096.356.599.86 1.067 1.509 1.403.65.337 1.472.505 2.321.505 1.424 0 2.542-.442 3.354-1.328.263.425.627.752 1.096.983.63.31 1.335.358 2.034.364m-7.104-9.427c.34 0 .63-.121.866-.363.236-.243.355-.528.355-.855s-.118-.629-.355-.865a1.177 1.177 0 0 0 -.866-.354c-.342 0-.61.118-.847.354a1.179 1.179 0 0 0 -.354.865c0 .341.118.612.354.855.237.242.518.363.847.363zm3.28 0c.34 0 .632-.121.875-.363a1.17 1.17 0 0 0 .364-.855c0-.327-.122-.629-.364-.865a1.208 1.208 0 0 0 -.876-.354c-.341 0-.61.118-.846.354a1.175 1.175 0 0 0 -.354.865c0 .341.117.612.354.855.237.242.518.363.846.363zm15.847-.037c.34 0 .63-.121.866-.364.236-.242.355-.527.355-.854s-.118-.613-.355-.855a1.164 1.164 0 0 0 -.866-.363c-.342 0-.637.121-.885.363-.25.242-.374.528-.374.855s.124.612.374.854c.25.243.544.364.885.364zm56.245-4.031c-.639 0-1.124.314-1.124.992v12.488h2.191v-13.274a2.971 2.971 0 0 0 -1.067-.206zm-10.64 4.068c.341 0 .633-.121.876-.363.242-.243.364-.528.364-.855s-.122-.629-.364-.865a1.211 1.211 0 0 0 -.876-.354c-.34 0-.609.118-.846.354a1.178 1.178 0 0 0 -.355.865c0 .341.118.612.355.855.237.242.518.363.846.363zm-3.278 0c.341 0 .629-.121.866-.363.236-.243.355-.528.355-.855s-.118-.629-.355-.865a1.175 1.175 0 0 0 -.866-.354c-.342 0-.61.118-.847.354a1.18 1.18 0 0 0 -.354.865c0 .341.118.612.354.855.237.242.519.363.847.363z"/><path d="m120.347 14.059v-13.274c-.112-.062-.336-.112-.523-.15a2.777 2.777 0 0 0 -.543-.056c-.337 0-.609.084-.815.252-.206.17-.309.415-.309.74v10.635h-6.28v-6.245a3.565 3.565 0 0 0 -.536-.181 2.403 2.403 0 0 0 -.549-.05c-.351 0-.622.086-.816.252-.194.169-.29.429-.29.778v5.445h-7.59c-4.083 0-6.088-2.357-7.232-3.794 1.08-.906 2.317-.986 3.016-.94.98.065 1.89.432 2.471.975a12.607 12.607 0 0 1 -2.056 2.084c.574.313 1.22.596 1.995.747a16.174 16.174 0 0 0 2.41-2.88c-.217-.342-1.408-2.557-4.696-2.773-3.554-.236-5.346 2.328-5.653 2.695 1.052 1.348 1.991 2.517 3.318 3.574a7.176 7.176 0 0 1 -2.096.313h-12.297v-11.421a1.62 1.62 0 0 0 -.45-.15 3.563 3.563 0 0 0 -.617-.056c-.336 0-.608.084-.814.252-.207.17-.31.415-.31.74v12.488h14.487c1.472 0 2.83-.37 4.036-.955 1.35.635 2.854.955 4.487.955h18.251zm-62.514 3.599c.34 0 .63-.122.866-.364s.355-.527.355-.854-.118-.629-.355-.865a1.178 1.178 0 0 0 -.866-.354c-.342 0-.61.117-.846.354a1.179 1.179 0 0 0 -.355.865c0 .34.118.612.355.854.236.242.517.364.846.364zm3.278 0c.34 0 .633-.122.876-.364a1.17 1.17 0 0 0 .364-.854c0-.327-.122-.629-.364-.865a1.208 1.208 0 0 0 -.876-.354c-.341 0-.61.117-.846.354a1.174 1.174 0 0 0 -.355.865c0 .34.118.612.355.854s.518.364.846.364zm14.696-5.452h-2.08c-.501 0-2.567-.031-2.567-2.301 0-1.512.937-2.451 2.269-2.451 1.536 0 2.378 1.122 2.378 3.368v1.386zm2.19-1.548c0-2.977-1.352-5.038-4.382-5.038-2.378 0-4.683 1.333-4.683 4.36s2.537 4.08 4.832 4.08h2.043v.3c0 1.194-.744 2.431-2.453 2.431-.963 0-1.62-.252-3.01-.956-.754.928-.292 1.688.436 2.048a6.63 6.63 0 0 0 2.856.671c3.183.047 4.362-1.851 4.362-5.028v-2.868zm-27.573-.922c0 .773-.197 1.378-.59 1.815-.394.437-.94.655-1.64.655-.699 0-1.205-.193-1.592-.58-.387-.386-.58-.904-.58-1.553 0-.81.305-1.428.918-1.852.612-.424 1.505-.637 2.68-.637h.805v2.152zm4.234 4.341c.273.003.65-.002.918 0 .951.009 1.944.041 2.85-.299a2.211 2.211 0 0 0 1.163-.992c.45.849 1.218 1.273 2.305 1.273h5.893v-8.122c-.112-.062-.336-.112-.522-.15a2.786 2.786 0 0 0 -.543-.056c-.337 0-.61.083-.815.252-.207.17-.31.415-.31.74v5.482h-2.297c-.883 0-2.043.04-2.41-.973-.13-.362-.196-.867-.196-1.516v-3.78c-.112-.062-.336-.112-.523-.15a2.787 2.787 0 0 0 -.543-.057c-.337 0-.608.084-.815.253-.206.169-.309.415-.309.74v2.994c0 .637-.063 1.135-.187 1.497-.293.847-1.215.986-2.012 1-.599.01-1.329.02-1.924-.008-.46-.022-.994-.116-1.324-.468-.293-.312-.44-.854-.44-1.627v-4.38h-3.033c-1.787 0-3.194.384-4.225 1.151-1.03.767-1.546 1.824-1.546 3.171 0 .8.179 1.498.534 2.096.356.599.86 1.067 1.509 1.403.65.337 1.472.505 2.321.505 1.424 0 2.542-.442 3.354-1.328.263.425.627.752 1.096.983.63.31 1.335.358 2.034.364m-7.104-9.427c.34 0 .63-.121.866-.363.236-.243.355-.528.355-.855s-.118-.629-.355-.865a1.177 1.177 0 0 0 -.866-.354c-.342 0-.61.118-.847.354a1.179 1.179 0 0 0 -.354.865c0 .341.118.612.354.855.237.242.518.363.847.363zm3.28 0c.34 0 .632-.121.875-.363a1.17 1.17 0 0 0 .364-.855c0-.327-.122-.629-.364-.865a1.208 1.208 0 0 0 -.876-.354c-.341 0-.61.118-.846.354a1.175 1.175 0 0 0 -.354.865c0 .341.117.612.354.855.237.242.518.363.846.363zm15.847-.037c.34 0 .63-.121.866-.364.236-.242.355-.527.355-.854s-.118-.613-.355-.855a1.164 1.164 0 0 0 -.866-.363c-.342 0-.637.121-.885.363-.25.242-.374.528-.374.855s.124.612.374.854c.25.243.544.364.885.364zm56.245-4.031c-.639 0-1.124.314-1.124.992v12.488h2.191v-13.274a2.971 2.971 0 0 0 -1.067-.206z"/><path d="m112.289 4.648c.341 0 .633-.121.876-.363.242-.243.364-.528.364-.855s-.122-.629-.364-.865a1.211 1.211 0 0 0 -.876-.354c-.34 0-.609.118-.846.354a1.178 1.178 0 0 0 -.355.865c0 .341.118.612.355.855.237.242.518.363.846.363zm-3.278 0c.341 0 .629-.121.866-.363.236-.243.355-.528.355-.855s-.118-.629-.355-.865a1.175 1.175 0 0 0 -.866-.354c-.342 0-.61.118-.847.354a1.18 1.18 0 0 0 -.354.865c0 .341.118.612.354.855.237.242.519.363.847.363z"/><path d="m120.347 14.059v-13.274c-.112-.062-.336-.112-.523-.15a2.777 2.777 0 0 0 -.543-.056c-.337 0-.609.084-.815.252-.206.17-.309.415-.309.74v10.635h-6.28v-6.245a3.565 3.565 0 0 0 -.536-.181 2.403 2.403 0 0 0 -.549-.05c-.351 0-.622.086-.816.252-.194.169-.29.429-.29.778v5.445h-7.59c-4.083 0-6.088-2.357-7.232-3.794 1.08-.906 2.317-.986 3.016-.94.98.065 1.89.432 2.471.975a12.607 12.607 0 0 1 -2.056 2.084c.574.313 1.22.596 1.995.747a16.174 16.174 0 0 0 2.41-2.88c-.217-.342-1.408-2.557-4.696-2.773-3.554-.236-5.346 2.328-5.653 2.695 1.052 1.348 1.991 2.517 3.318 3.574a7.176 7.176 0 0 1 -2.096.313h-12.297v-11.421a1.62 1.62 0 0 0 -.45-.15 3.563 3.563 0 0 0 -.617-.056c-.336 0-.608.084-.814.252-.207.17-.31.415-.31.74v12.488h14.487c1.472 0 2.83-.37 4.036-.955 1.35.635 2.854.955 4.487.955h18.251zm-62.514 3.599c.34 0 .63-.122.866-.364s.355-.527.355-.854-.118-.629-.355-.865a1.178 1.178 0 0 0 -.866-.354c-.342 0-.61.117-.846.354a1.179 1.179 0 0 0 -.355.865c0 .34.118.612.355.854.236.242.517.364.846.364zm3.278 0c.34 0 .633-.122.876-.364a1.17 1.17 0 0 0 .364-.854c0-.327-.122-.629-.364-.865a1.208 1.208 0 0 0 -.876-.354c-.341 0-.61.117-.846.354a1.174 1.174 0 0 0 -.355.865c0 .34.118.612.355.854s.518.364.846.364zm-9.411 12.634c-.14.102-.35.257-.669.373-.32.115-.667.172-1.038.172a2.81 2.81 0 0 1 -.663-.077 1.412 1.412 0 0 1 -.557-.269 1.252 1.252 0 0 1 -.374-.509c-.09-.21-.136-.483-.136-.816v-4.28h3.69a3.67 3.67 0 0 0 .154-.393c.064-.185.096-.387.096-.604 0-.334-.087-.586-.259-.758-.173-.173-.471-.26-.894-.26h-2.787v-2.514a5.126 5.126 0 0 0 -.394-.124 2.322 2.322 0 0 0 -.643-.087c-.36 0-.64.08-.846.24-.205.161-.307.42-.307.778v1.708h-1.107c-.423 0-.72.086-.894.26-.172.172-.259.425-.259.758 0 .217.033.419.096.604.064.185.115.317.154.393h2.01v4.722c0 .946.288 1.711.865 2.293s1.428.873 2.555.873c.397 0 .762-.034 1.095-.105a6.15 6.15 0 0 0 .904-.26c.269-.102.496-.21.682-.326.185-.115.33-.21.432-.288 0 0-.088-.397-.332-.798-.244-.402-.575-.706-.575-.706m49.971-7.419c-.371 0-.659.08-.865.24-.205.16-.307.42-.307.778v8.617h2.19v-9.423a5.162 5.162 0 0 0 -.385-.124 2.22 2.22 0 0 0 -.634-.087m-.076-4.32c-.371 0-.685.129-.942.385a1.28 1.28 0 0 0 -.384.94c0 .372.128.685.384.942.257.256.571.384.942.384.372 0 .686-.128.942-.384.257-.257.385-.57.385-.941s-.128-.685-.385-.94a1.28 1.28 0 0 0 -.942-.385zm20.219 12.406c-.48.05-1.721.106-1.857.109-.679.012-1.409-.021-2.051-.261-.563-.21-1.095-.674-1.211-1.275a1.286 1.286 0 0 1 -.024-.273c.014-.61.414-1.187.943-1.464.614-.322 1.419-.28 2.091-.239.621.039 1.433.113 2.1.189.003.265.005.474.008.474v2.74zm.75-7.422a4.573 4.573 0 0 0 -1.605-.7 9.062 9.062 0 0 0 -2.066-.222c-.628 0-1.147.038-1.556.115-.412.077-.738.183-.98.317-.244.134-.413.288-.51.461-.096.172-.145.35-.145.527 0 .258.068.474.202.652.134.18.24.302.317.365.14-.116.433-.255.875-.423.442-.165 1.028-.249 1.758-.249.433 0 .832.033 1.191.096.358.065.665.18.922.345a1.736 1.736 0 0 1 .751 1.117c-1.132-.136-2.439-.247-3.192-.176-.803.076-1.624.232-2.306.662-1.47.93-1.974 2.909-1.118 4.415.413.728 1.147 1.235 1.935 1.516.788.282 1.635.359 2.472.392 1.288.05 2.589-.03 3.868-.182.275-.03.477-.06.605-.086v-5.776c0-.74-.124-1.374-.374-1.9a3.24 3.24 0 0 0 -1.047-1.267m-62.443 7.423c-.48.05-1.721.106-1.856.109-.68.012-1.409-.021-2.051-.261-.563-.21-1.095-.674-1.211-1.274a1.242 1.242 0 0 1 -.024-.272c.014-.612.414-1.188.943-1.465.614-.321 1.42-.28 2.09-.239.622.039 1.434.113 2.1.189.004.265.006.474.009.474v2.74zm17.074-8.098c-.345-.03-.716.063-.954.314-.169.178-.255.418-.338.65l-2.055 5.79-2.157-6.194c-.041-.118-.085-.24-.176-.323-.105-.095-.252-.123-.392-.148-.533-.093-1.159-.158-1.54.224-.17.171-.259.404-.342.63-.68 1.84-1.342 3.687-1.985 5.54-.336-.858-.3-.847-.636-1.705-.04-.1-.082-.205-.171-.265a1.312 1.312 0 0 0 -.309-.126c-1.004-.279-2.656-.756-3.872-1.061a4.012 4.012 0 0 0 -.352-1.384c-.25-.524-.6-.947-1.047-1.267a4.578 4.578 0 0 0 -1.604-.701 9.075 9.075 0 0 0 -2.066-.221c-.628 0-1.147.038-1.556.115-.412.077-.738.183-.98.317-.245.134-.414.287-.51.46-.097.173-.145.35-.145.528 0 .258.068.474.202.652.134.18.24.302.317.365.14-.116.432-.255.874-.423.442-.165 1.029-.25 1.758-.25.434 0 .833.033 1.192.096.358.066.665.18.922.346.255.167.457.397.605.69.063.127.11.272.146.427-1.132-.137-2.44-.247-3.192-.176-.805.075-1.624.232-2.306.662-1.47.93-1.974 2.909-1.118 4.415.412.728 1.147 1.234 1.935 1.516s1.634.359 2.472.391c1.288.05 2.589-.03 3.868-.181.275-.03.477-.06.605-.086v-4.393c1.061.243 2.317.59 2.35.62.278.259 1.447 3.8 1.473 3.8.754 0 1.509 0 2.262.002a211.055 211.055 0 0 0 2.094-6.539 154.793 154.793 0 0 0 2.134 6.539c.758 0 1.516 0 2.275.002l3.303-9.342-.008-.004c-.313-.143-.637-.274-.979-.304"/><path d="m64.09 22.874c-.37 0-.646.102-.827.308-.178.204-.205.337-.205.606 0 .05.253.892.635 1.961l2.5.713a82.24 82.24 0 0 1 -1.122-3.395 2.166 2.166 0 0 0 -.317-.116c-.16-.051-.38-.077-.664-.077zm23.329-.017c-.36 0-.64.08-.845.24-.186.144-.295.372-.307.679v4.622c0 .87-.209 1.532-.625 1.986s-1.04.681-1.873.681-1.441-.227-1.865-.681c-.421-.454-.634-1.117-.634-1.986v-5.33a5.11 5.11 0 0 0 -.394-.125 2.316 2.316 0 0 0 -.643-.086c-.36 0-.64.08-.846.24-.203.16-.305.415-.306.77v5.087c0 .64.115 1.212.345 1.718.23.505.555.933.97 1.285.416.352.913.62 1.489.806a6.132 6.132 0 0 0 1.882.278 6.04 6.04 0 0 0 1.874-.278 4.342 4.342 0 0 0 1.48-.806c.416-.352.743-.781.98-1.285.237-.506.356-1.079.356-1.718v-5.886a5.088 5.088 0 0 0 -.394-.125 2.328 2.328 0 0 0 -.644-.086zm10.411.819a4.341 4.341 0 0 0 -1.48-.806 6.032 6.032 0 0 0 -1.873-.279c-.68 0-1.307.094-1.883.279a4.33 4.33 0 0 0 -1.488.805 3.64 3.64 0 0 0 -.972 1.286c-.23.505-.346 1.078-.346 1.717v5.088c.001.354.104.61.307.77.205.16.487.24.845.24.23 0 .445-.03.644-.087.198-.057.33-.099.394-.124v-5.33c0-.869.21-1.531.634-1.985.422-.454 1.044-.681 1.864-.681s1.457.227 1.874.68c.416.455.624 1.117.624 1.987v4.622c.012.306.122.533.307.679.205.16.486.24.845.24.231 0 .446-.03.644-.087a5.05 5.05 0 0 0 .394-.124v-5.887c0-.639-.118-1.212-.356-1.717a3.735 3.735 0 0 0 -.98-1.285m14.761-.804c-.359 0-.641.084-.847.25-.205.166-.307.422-.307.767v4.106c0 .883-.224 1.552-.673 2.005-.449.454-1.063.681-1.844.681-.846 0-1.471-.223-1.874-.672-.403-.448-.605-1.049-.605-1.803v-5.124a5.15 5.15 0 0 0 -.394-.125 2.326 2.326 0 0 0 -.644-.086c-.359 0-.641.084-.845.25-.205.166-.308.422-.308.767v4.76c0 .625.106 1.183.317 1.669s.503.891.875 1.219c.371.326.819.576 1.345.748.525.173 1.096.26 1.711.26.652 0 1.252-.112 1.796-.337.545-.223.944-.521 1.201-.892 0 2.713-.363 4.292-3.21 4.292-1.579 0-2.678-.35-3.113-.538-.069.153-.403.793-.22 1.342.12.362.455.536.795.636 1.004.298 3.048.43 4.344.218 2.692-.44 3.536-2.276 3.536-5.778v-8.406a4.776 4.776 0 0 0 -.394-.125 2.326 2.326 0 0 0 -.643-.086m-60.889 7.421c-.14.102-.35.257-.669.373-.32.115-.667.172-1.038.172a2.81 2.81 0 0 1 -.663-.077 1.412 1.412 0 0 1 -.557-.269 1.252 1.252 0 0 1 -.374-.509c-.09-.21-.136-.483-.136-.816v-4.28h3.69a3.67 3.67 0 0 0 .154-.393c.064-.185.096-.387.096-.604 0-.334-.087-.586-.259-.758-.173-.173-.471-.26-.894-.26h-2.787v-2.514a5.126 5.126 0 0 0 -.394-.124 2.322 2.322 0 0 0 -.643-.087c-.36 0-.64.08-.846.24-.205.161-.307.42-.307.778v1.708h-1.107c-.423 0-.72.086-.894.26-.172.172-.259.425-.259.758 0 .217.033.419.096.604.064.185.115.317.154.393h2.01v4.722c0 .946.288 1.711.865 2.293s1.428.873 2.555.873c.397 0 .762-.034 1.095-.105a6.15 6.15 0 0 0 .904-.26c.269-.102.496-.21.682-.326.185-.115.33-.21.432-.288 0 0-.088-.397-.332-.798-.244-.402-.575-.706-.575-.706m49.971-7.419c-.371 0-.659.08-.865.24-.205.16-.307.42-.307.778v8.617h2.19v-9.423a5.162 5.162 0 0 0 -.385-.124 2.22 2.22 0 0 0 -.634-.087m-.076-4.32c-.371 0-.685.129-.942.385a1.28 1.28 0 0 0 -.384.94c0 .372.128.685.384.942.257.256.571.384.942.384.372 0 .686-.128.942-.384.257-.257.385-.57.385-.941s-.128-.685-.385-.94a1.28 1.28 0 0 0 -.942-.385zm20.219 12.406c-.48.05-1.721.106-1.857.109-.679.012-1.409-.021-2.051-.261-.563-.21-1.095-.674-1.211-1.275a1.286 1.286 0 0 1 -.024-.273c.014-.61.414-1.187.943-1.464.614-.322 1.419-.28 2.091-.239.621.039 1.433.113 2.1.189.003.265.005.474.008.474v2.74zm.75-7.422a4.573 4.573 0 0 0 -1.605-.7 9.062 9.062 0 0 0 -2.066-.222c-.628 0-1.147.038-1.556.115-.412.077-.738.183-.98.317-.244.134-.413.288-.51.461-.096.172-.145.35-.145.527 0 .258.068.474.202.652.134.18.24.302.317.365.14-.116.433-.255.875-.423.442-.165 1.028-.249 1.758-.249.433 0 .832.033 1.191.096.358.065.665.18.922.345a1.736 1.736 0 0 1 .751 1.117c-1.132-.136-2.439-.247-3.192-.176-.803.076-1.624.232-2.306.662-1.47.93-1.974 2.909-1.118 4.415.413.728 1.147 1.235 1.935 1.516.788.282 1.635.359 2.472.392 1.288.05 2.589-.03 3.868-.182.275-.03.477-.06.605-.086v-5.776c0-.74-.124-1.374-.374-1.9a3.24 3.24 0 0 0 -1.047-1.267"/><path d="m60.116 30.96c-.48.05-1.721.106-1.856.109-.68.012-1.409-.021-2.051-.261-.563-.21-1.095-.674-1.211-1.274a1.242 1.242 0 0 1 -.024-.272c.014-.612.414-1.188.943-1.465.614-.321 1.42-.28 2.09-.239.622.039 1.434.113 2.1.189.004.265.006.474.009.474v2.74zm17.074-8.098c-.345-.03-.716.063-.954.314-.169.178-.255.418-.338.65l-2.055 5.79-2.157-6.194c-.041-.118-.085-.24-.176-.323-.105-.095-.252-.123-.392-.148-.533-.093-1.159-.158-1.54.224-.17.171-.259.404-.342.63-.68 1.84-1.342 3.687-1.985 5.54-.336-.858-.3-.847-.636-1.705-.04-.1-.082-.205-.171-.265a1.312 1.312 0 0 0 -.309-.126c-1.004-.279-2.656-.756-3.872-1.061a4.012 4.012 0 0 0 -.352-1.384c-.25-.524-.6-.947-1.047-1.267a4.578 4.578 0 0 0 -1.604-.701 9.075 9.075 0 0 0 -2.066-.221c-.628 0-1.147.038-1.556.115-.412.077-.738.183-.98.317-.245.134-.414.287-.51.46-.097.173-.145.35-.145.528 0 .258.068.474.202.652.134.18.24.302.317.365.14-.116.432-.255.874-.423.442-.165 1.029-.25 1.758-.25.434 0 .833.033 1.192.096.358.066.665.18.922.346.255.167.457.397.605.69.063.127.11.272.146.427-1.132-.137-2.44-.247-3.192-.176-.805.075-1.624.232-2.306.662-1.47.93-1.974 2.909-1.118 4.415.412.728 1.147 1.234 1.935 1.516s1.634.359 2.472.391c1.288.05 2.589-.03 3.868-.181.275-.03.477-.06.605-.086v-4.393c1.061.243 2.317.59 2.35.62.278.259 1.447 3.8 1.473 3.8.754 0 1.509 0 2.262.002a211.055 211.055 0 0 0 2.094-6.539 154.793 154.793 0 0 0 2.134 6.539c.758 0 1.516 0 2.275.002l3.303-9.342-.008-.004c-.313-.143-.637-.274-.979-.304"/><path d="m64.09 22.874c-.37 0-.646.102-.827.308-.178.204-.205.337-.205.606 0 .05.253.892.635 1.961l2.5.713a82.24 82.24 0 0 1 -1.122-3.395 2.166 2.166 0 0 0 -.317-.116c-.16-.051-.38-.077-.664-.077zm23.329-.017c-.36 0-.64.08-.845.24-.186.144-.295.372-.307.679v4.622c0 .87-.209 1.532-.625 1.986s-1.04.681-1.873.681-1.441-.227-1.865-.681c-.421-.454-.634-1.117-.634-1.986v-5.33a5.11 5.11 0 0 0 -.394-.125 2.316 2.316 0 0 0 -.643-.086c-.36 0-.64.08-.846.24-.203.16-.305.415-.306.77v5.087c0 .64.115 1.212.345 1.718.23.505.555.933.97 1.285.416.352.913.62 1.489.806a6.132 6.132 0 0 0 1.882.278 6.04 6.04 0 0 0 1.874-.278 4.342 4.342 0 0 0 1.48-.806c.416-.352.743-.781.98-1.285.237-.506.356-1.079.356-1.718v-5.886a5.088 5.088 0 0 0 -.394-.125 2.328 2.328 0 0 0 -.644-.086zm10.411.819a4.341 4.341 0 0 0 -1.48-.806 6.032 6.032 0 0 0 -1.873-.279c-.68 0-1.307.094-1.883.279a4.33 4.33 0 0 0 -1.488.805 3.64 3.64 0 0 0 -.972 1.286c-.23.505-.346 1.078-.346 1.717v5.088c.001.354.104.61.307.77.205.16.487.24.845.24.23 0 .445-.03.644-.087.198-.057.33-.099.394-.124v-5.33c0-.869.21-1.531.634-1.985.422-.454 1.044-.681 1.864-.681s1.457.227 1.874.68c.416.455.624 1.117.624 1.987v4.622c.012.306.122.533.307.679.205.16.486.24.845.24.231 0 .446-.03.644-.087a5.05 5.05 0 0 0 .394-.124v-5.887c0-.639-.118-1.212-.356-1.717a3.735 3.735 0 0 0 -.98-1.285m14.761-.804c-.359 0-.641.084-.847.25-.205.166-.307.422-.307.767v4.106c0 .883-.224 1.552-.673 2.005-.449.454-1.063.681-1.844.681-.846 0-1.471-.223-1.874-.672-.403-.448-.605-1.049-.605-1.803v-5.124a5.15 5.15 0 0 0 -.394-.125 2.326 2.326 0 0 0 -.644-.086c-.359 0-.641.084-.845.25-.205.166-.308.422-.308.767v4.76c0 .625.106 1.183.317 1.669s.503.891.875 1.219c.371.326.819.576 1.345.748.525.173 1.096.26 1.711.26.652 0 1.252-.112 1.796-.337.545-.223.944-.521 1.201-.892 0 2.713-.363 4.292-3.21 4.292-1.579 0-2.678-.35-3.113-.538-.069.153-.403.793-.22 1.342.12.362.455.536.795.636 1.004.298 3.048.43 4.344.218 2.692-.44 3.536-2.276 3.536-5.778v-8.406a4.776 4.776 0 0 0 -.394-.125 2.326 2.326 0 0 0 -.643-.086"/></g></svg>