<?xml version="1.0" encoding="UTF-8" standalone="no"?>
<!-- Generator: Adobe Illustrator 28.0.0, SVG Export Plug-In . SVG Version: 6.00 Build 0)  -->

<svg
   version="1.1"
   id="Layer_1"
   x="0px"
   y="0px"
   viewBox="0 0 717.98999 394.82001"
   xml:space="preserve"
   sodipodi:docname="General Entertainment Authority-01.svg"
   width="717.98999"
   height="394.82001"
   inkscape:version="1.3.2 (091e20e, 2023-11-25, custom)"
   xmlns:inkscape="http://www.inkscape.org/namespaces/inkscape"
   xmlns:sodipodi="http://sodipodi.sourceforge.net/DTD/sodipodi-0.dtd"
   xmlns="http://www.w3.org/2000/svg"
   xmlns:svg="http://www.w3.org/2000/svg"><defs
   id="defs46">
	

		
		
		
		
		
		
		
		
		
		
		
		
		
		
		
		
		
		
		
		
		
		
		
		
		
		
		
		
		
		
		
		
		
		
		
		
		
		
		
		
		
		
		
		
		
		
		
		
		
		
		
		
		
		
	</defs><sodipodi:namedview
   id="namedview46"
   pagecolor="#ffffff"
   bordercolor="#999999"
   borderopacity="1"
   inkscape:showpageshadow="2"
   inkscape:pageopacity="0"
   inkscape:pagecheckerboard="true"
   inkscape:deskcolor="#d1d1d1"
   inkscape:zoom="0.674"
   inkscape:cx="359.05045"
   inkscape:cy="197.32938"
   inkscape:window-width="1500"
   inkscape:window-height="912"
   inkscape:window-x="-8"
   inkscape:window-y="-8"
   inkscape:window-maximized="1"
   inkscape:current-layer="Layer_1" />
<style
   type="text/css"
   id="style1">
	.st0{fill:#8D45CD;}
	.st1{fill:#4DA931;}
</style>
<g
   id="g46"><path
     d="m 97.45,282.19 c -3.63,2.87 -5.47,7.22 -5.47,12.92 0,3.67 1.16,7.46 3.4,10.32 H 78.54 v -23.17 h -4.78 v 23.17 H 26.77 v -25.78 l -1.84,-0.44 C 24.44,279.1 12.73,276.43 5.47,282.19 1.84,285.06 0,289.41 0,295.11 c 0,7.32 4.62,15.1 13.19,15.1 h 11.2 2.39 78.4 11.2 2.39 v -30.57 l -1.84,-0.44 c -0.51,-0.1 -12.22,-2.77 -19.48,2.99 m -75.46,23.24 h -8.81 c -6.16,0 -8.4,-6.17 -8.4,-10.32 0,-4.22 1.19,-7.22 3.64,-9.17 2.67,-2.13 6.42,-2.67 9.55,-2.67 1.56,0 2.98,0.14 4.02,0.28 z m 83.17,0 c -6.16,0 -8.4,-6.17 -8.4,-10.32 0,-4.22 1.19,-7.22 3.64,-9.17 2.67,-2.13 6.42,-2.67 9.55,-2.67 1.56,0 2.97,0.14 4.02,0.28 v 21.88 z"
     id="path1" /><path
     d="m 212.02,305.43 h -16.43 v -47.45 h -4.78 v 47.45 h -16.42 v -23.17 h -4.78 v 23.17 h -31.03 v -23.17 h -4.78 v 34.23 c 0,2.36 -0.63,4.01 -1.94,5.05 -2.54,2 -7.28,1.44 -8.88,1.06 l -1.13,4.64 c 0.16,0.04 2.13,0.51 4.67,0.51 2.61,0 5.82,-0.49 8.3,-2.44 2.51,-1.97 3.78,-4.93 3.78,-8.81 v -6.27 h 78.22 V 258 h -4.78 z"
     id="path2" /><path
     d="m 348.62,278.5 c -8.94,0 -13.48,5.34 -13.48,15.86 0,4.76 0.94,8.45 2.79,11.07 H 273 v -25.78 l -1.84,-0.44 c -0.49,-0.11 -12.2,-2.78 -19.46,2.98 -3.63,2.87 -5.47,7.22 -5.47,12.92 0,7.32 4.62,15.1 13.19,15.1 h 11.2 2.38 75.63 c 8.93,0 13.45,-5.34 13.45,-15.86 0,-10.52 -4.53,-15.85 -13.46,-15.85 m -80.4,26.93 h -8.81 c -6.16,0 -8.4,-6.17 -8.4,-10.32 0,-4.22 1.19,-7.22 3.64,-9.17 2.67,-2.13 6.42,-2.67 9.55,-2.67 1.56,0 2.97,0.14 4.02,0.28 z m 80.4,0 c -4.21,0 -8.69,-0.86 -8.69,-11.07 0,-10.21 4.49,-11.07 8.69,-11.07 4.19,0 8.67,0.86 8.67,11.07 0,10.21 -4.47,11.07 -8.67,11.07"
     id="path3" /><path
     d="M 452.03,305.43 H 431 c 3.76,-3.01 7.32,-7.64 7.32,-14.47 0,-5.5 -3.07,-9.87 -8.42,-11.98 -7.59,-2.99 -18.29,-0.93 -23.36,4.51 l -1.09,1.17 9.54,20.78 h -34.88 v -47.45 h -4.78 v 52.23 h 81.49 v -52.23 h -4.78 v 47.44 z m -40.85,-19.74 c 4.16,-3.21 11.75,-4.32 16.96,-2.28 3.58,1.41 5.4,3.95 5.4,7.54 0,9.8 -10.3,13.8 -12.24,14.47 h -1.05 z"
     id="path4" /><rect
     x="471.03003"
     y="257.99002"
     width="4.7800002"
     height="52.959999"
     id="rect4" /><rect
     x="711.21002"
     y="257.99002"
     width="4.7800002"
     height="52.959999"
     id="rect5" /><path
     d="m 692.78,305.43 h -16.12 v -10.32 c 0,-5.7 -1.84,-10.05 -5.47,-12.92 -7.27,-5.76 -18.97,-3.09 -19.46,-2.98 l -1.84,0.44 v 25.78 h -30.57 v -23.17 h -4.78 v 23.17 h -30.5 v -23.17 h -4.78 v 23.17 h -46.87 v -25.78 l -1.84,-0.44 c -0.49,-0.11 -12.2,-2.78 -19.47,2.98 -3.63,2.87 -5.47,7.22 -5.47,12.92 0,7.32 4.62,15.1 13.19,15.1 h 11.21 2.39 117.51 v 3.68 c 0,12.16 7.66,14.71 14.08,14.71 4.21,0 7.42,-1.08 9.55,-3.22 3.17,-3.18 3.15,-7.69 3.15,-10.99 v -4.18 h 20.91 v -52.22 h -4.78 z m -165.19,0 h -8.81 c -6.16,0 -8.4,-6.17 -8.4,-10.32 0,-4.22 1.19,-7.22 3.64,-9.17 2.67,-2.13 6.42,-2.67 9.55,-2.67 1.56,0 2.97,0.14 4.02,0.28 z m 127.07,-21.87 c 3.14,-0.43 9.56,-0.8 13.57,2.39 2.45,1.95 3.64,4.95 3.64,9.17 v 10.32 h -17.22 z m 17.21,30.85 c 0.01,2.73 0.02,5.83 -1.75,7.6 -1.2,1.21 -3.27,1.81 -6.16,1.81 -8.18,0 -9.3,-4.77 -9.3,-9.93 v -3.68 h 17.22 v 4.2 z"
     id="path5" /><path
     d="m 70.24,317.71 c -1.92,0 -3.47,1.55 -3.47,3.47 0,1.92 1.55,3.47 3.47,3.47 1.92,0 3.47,-1.55 3.47,-3.47 0,-1.91 -1.56,-3.47 -3.47,-3.47"
     id="path6" /><path
     d="m 82.07,317.71 c -1.92,0 -3.47,1.55 -3.47,3.47 0,1.92 1.55,3.47 3.47,3.47 1.92,0 3.47,-1.55 3.47,-3.47 0,-1.91 -1.55,-3.47 -3.47,-3.47"
     id="path7" /><path
     d="m 611,317.71 c -1.92,0 -3.47,1.55 -3.47,3.47 0,1.92 1.55,3.47 3.47,3.47 1.92,0 3.47,-1.55 3.47,-3.47 0,-1.91 -1.55,-3.47 -3.47,-3.47"
     id="path8" /><path
     d="m 622.83,317.71 c -1.92,0 -3.47,1.55 -3.47,3.47 0,1.92 1.55,3.47 3.47,3.47 1.92,0 3.47,-1.55 3.47,-3.47 0.01,-1.91 -1.55,-3.47 -3.47,-3.47"
     id="path9" /><path
     d="m 166.08,272.64 c 1.92,0 3.47,-1.55 3.47,-3.47 0,-1.92 -1.55,-3.47 -3.47,-3.47 -1.92,0 -3.47,1.55 -3.47,3.47 0,1.91 1.56,3.47 3.47,3.47"
     id="path10" /><path
     d="m 177.92,272.64 c 1.92,0 3.47,-1.55 3.47,-3.47 0,-1.92 -1.55,-3.47 -3.47,-3.47 -1.92,0 -3.47,1.55 -3.47,3.47 -0.01,1.91 1.55,3.47 3.47,3.47"
     id="path11" /><path
     d="m 254.61,270.18 c 1.92,0 3.47,-1.55 3.47,-3.47 0,-1.92 -1.55,-3.47 -3.47,-3.47 -1.92,0 -3.47,1.55 -3.47,3.47 0,1.91 1.55,3.47 3.47,3.47"
     id="path12" /><path
     d="m 105.93,270.18 c 1.92,0 3.47,-1.55 3.47,-3.47 0,-1.92 -1.55,-3.47 -3.47,-3.47 -1.92,0 -3.47,1.55 -3.47,3.47 0,1.91 1.56,3.47 3.47,3.47"
     id="path13" /><path
     d="m 266.44,270.18 c 1.92,0 3.47,-1.55 3.47,-3.47 0,-1.92 -1.55,-3.47 -3.47,-3.47 -1.92,0 -3.47,1.55 -3.47,3.47 0,1.91 1.55,3.47 3.47,3.47"
     id="path14" /><path
     d="m 513.79,270.18 c 1.92,0 3.47,-1.55 3.47,-3.47 0,-1.92 -1.55,-3.47 -3.47,-3.47 -1.92,0 -3.47,1.55 -3.47,3.47 -0.01,1.91 1.56,3.47 3.47,3.47"
     id="path15" /><path
     d="m 525.62,270.18 c 1.92,0 3.47,-1.55 3.47,-3.47 0,-1.92 -1.55,-3.47 -3.47,-3.47 -1.92,0 -3.47,1.55 -3.47,3.47 0,1.91 1.55,3.47 3.47,3.47"
     id="path16" /><path
     d="m 585.62,273.3 c 0.39,0 0.64,-0.01 0.68,-0.02 l -0.09,-1.42 v -1.38 h -1.12 c -1.65,-0.06 -4.27,-0.43 -5.71,-1.79 -0.74,-0.7 -1.11,-1.6 -1.11,-2.75 0,-0.65 0.2,-1.13 0.64,-1.51 1.51,-1.32 5.23,-1.16 6.42,-1 l 0.38,-2.78 c -0.6,-0.08 -5.9,-0.73 -8.64,1.66 -1.05,0.92 -1.6,2.17 -1.6,3.63 0,1.81 0.61,3.33 1.77,4.54 h -2.91 v 2.81 h 10.64 c 0.25,0 0.47,0.01 0.65,0.01"
     id="path17" /><path
     d="m 14.96,371.73 h 8.8 v 9.23 c -1.93,1.44 -4.58,2.29 -7.14,2.29 -7.03,0 -11.57,-5.55 -11.57,-14.14 v -0.25 c 0,-8.1 4.72,-13.98 11.22,-13.98 3.25,0 5.7,0.94 8.2,3.15 l 0.37,0.32 2.82,-3.76 -0.34,-0.28 c -3.32,-2.72 -6.6,-3.88 -10.95,-3.88 -9.35,0 -16.15,7.74 -16.15,18.41 v 0.35 c 0,10.98 6.53,18.36 16.25,18.36 5.63,0 9.71,-2.65 11.65,-4.22 l 0.17,-0.14 V 367.43 H 14.96 Z"
     id="path18" /><path
     d="m 45,359.45 c -6.53,0 -11.27,5.91 -11.27,14.04 v 0.25 c 0,8.05 5.08,13.88 12.08,13.88 3.7,0 6.58,-1.25 9.33,-4.06 l 0.3,-0.3 -2.67,-2.99 -0.34,0.34 c -1.97,1.97 -4.03,2.89 -6.47,2.89 -4.08,0 -7.09,-3.23 -7.61,-8.1 h 17.52 l 0.05,-0.4 c 0.05,-0.48 0.05,-1.19 0.05,-1.56 0,-8.5 -4.31,-13.99 -10.97,-13.99 m 0,4.08 c 4.26,0 6.09,4.28 6.4,8.15 H 38.34 c 0.47,-4.9 3.1,-8.15 6.66,-8.15"
     id="path19" /><path
     d="m 73.23,359.45 c -3.04,0 -5.48,1.24 -7.29,3.69 v -3.18 h -4.53 v 27.12 h 4.53 v -16.4 c 0,-4.14 2.54,-7.04 6.19,-7.04 3.6,0 5.58,2.43 5.58,6.84 v 16.6 h 4.53 v -17.61 c 0,-6.18 -3.45,-10.02 -9.01,-10.02"
     id="path20" /><path
     d="m 98.79,359.45 c -6.53,0 -11.27,5.91 -11.27,14.04 v 0.25 c 0,8.05 5.08,13.89 12.08,13.89 3.7,0 6.58,-1.26 9.33,-4.06 l 0.3,-0.3 -2.67,-2.99 -0.34,0.34 c -1.97,1.97 -4.03,2.88 -6.47,2.88 -4.08,0 -7.09,-3.23 -7.61,-8.1 h 17.52 l 0.05,-0.4 c 0.05,-0.48 0.05,-1.18 0.05,-1.56 -0.01,-8.5 -4.31,-13.99 -10.97,-13.99 m -6.65,12.22 c 0.46,-4.9 3.1,-8.15 6.65,-8.15 4.26,0 6.09,4.28 6.41,8.15 z"
     id="path21" /><path
     d="m 119.72,364.32 v -4.37 h -4.53 v 27.12 h 4.53 v -12.93 c 0,-5.99 3.2,-9.71 8.35,-9.71 h 0.65 v -4.81 l -0.43,-0.02 c -3.53,-0.15 -6.63,1.57 -8.57,4.72"
     id="path22" /><path
     d="m 141.1,359.6 c -3.56,0 -6.27,1.09 -8.45,2.16 l -0.38,0.19 1.5,3.83 0.45,-0.24 c 2.14,-1.13 4.32,-1.71 6.48,-1.71 4.02,0 6.24,2.14 6.24,6.03 v 0.95 c -1.69,-0.49 -3.64,-0.9 -6.29,-0.9 -6.24,0 -10.11,3.41 -10.11,8.91 v 0.2 c 0,5.65 4.46,8.6 8.85,8.6 3.71,0 6.08,-1.68 7.55,-3.44 v 2.88 h 4.48 v -17.31 c 0,-3.12 -0.92,-5.68 -2.65,-7.41 -1.82,-1.82 -4.41,-2.74 -7.67,-2.74 m 5.89,14.96 v 2.95 c 0,1.62 -0.63,3.13 -1.78,4.26 -1.26,1.25 -3,1.93 -4.91,1.93 -3.05,0.07 -5.24,-1.97 -5.24,-4.88 v -0.15 c 0,-3.15 2.26,-5.03 6.03,-5.03 2.12,0 4.1,0.31 5.9,0.92"
     id="path23" /><rect
     x="158.35999"
     y="349.84"
     width="4.5300002"
     height="37.23"
     id="rect23" /><polygon
     points="347.91,689.66 347.91,685.28 329.95,685.28 329.95,673.61 345.85,673.61 345.85,669.29 329.95,669.29 329.95,657.92 347.67,657.92 347.67,653.54 325.28,653.54 325.28,689.66 "
     id="polygon23"
     transform="translate(-141,-302.59)" /><path
     d="m 224.58,359.45 c -3.04,0 -5.49,1.24 -7.29,3.69 v -3.18 h -4.53 v 27.12 h 4.53 v -16.4 c 0,-4.14 2.55,-7.04 6.19,-7.04 3.6,0 5.58,2.43 5.58,6.84 v 16.6 h 4.53 v -17.61 c -0.01,-6.18 -3.46,-10.02 -9.01,-10.02"
     id="path24" /><path
     d="m 245.86,352.31 h -4.53 v 7.65 h -3.17 v 4.13 h 3.17 v 16.45 c 0,4.48 2.48,6.94 6.99,6.94 1.46,0 2.77,-0.3 4.12,-0.95 l 0.26,-0.12 v -4.09 l -0.63,0.27 c -1.06,0.45 -2,0.67 -2.89,0.67 -2.27,0 -3.32,-1.06 -3.32,-3.32 V 364.1 h 6.84 v -4.13 h -6.84 z"
     id="path25" /><path
     d="m 267.35,359.45 c -6.53,0 -11.27,5.91 -11.27,14.04 v 0.25 c 0,8.05 5.08,13.89 12.08,13.89 3.7,0 6.58,-1.26 9.33,-4.06 l 0.3,-0.3 -2.67,-2.99 -0.34,0.34 c -1.97,1.97 -4.03,2.88 -6.47,2.88 -4.08,0 -7.09,-3.23 -7.61,-8.1 h 17.52 l 0.05,-0.4 c 0.05,-0.48 0.05,-1.19 0.05,-1.56 0,-8.5 -4.31,-13.99 -10.97,-13.99 m -6.66,12.22 c 0.46,-4.9 3.1,-8.15 6.65,-8.15 4.26,0 6.09,4.28 6.4,8.15 z"
     id="path26" /><path
     d="m 288.28,364.32 v -4.37 h -4.53 v 27.12 h 4.53 v -12.93 c 0,-5.99 3.2,-9.71 8.35,-9.71 h 0.65 v -4.81 l -0.43,-0.02 c -3.56,-0.14 -6.63,1.57 -8.57,4.72"
     id="path27" /><path
     d="m 307.6,352.31 h -4.53 v 7.65 h -3.17 v 4.13 h 3.17 v 16.45 c 0,4.48 2.48,6.94 6.99,6.94 1.46,0 2.77,-0.3 4.12,-0.95 l 0.26,-0.12 v -4.09 l -0.63,0.27 c -1.06,0.45 -2,0.67 -2.89,0.67 -2.27,0 -3.32,-1.06 -3.32,-3.32 V 364.1 h 6.84 v -4.13 h -6.84 z"
     id="path28" /><path
     d="m 328.73,359.6 c -3.56,0 -6.27,1.09 -8.45,2.16 l -0.38,0.19 1.5,3.83 0.45,-0.24 c 2.14,-1.13 4.32,-1.71 6.48,-1.71 4.02,0 6.24,2.14 6.24,6.03 v 0.95 c -1.69,-0.49 -3.64,-0.9 -6.29,-0.9 -6.24,0 -10.11,3.41 -10.11,8.91 v 0.2 c 0,5.65 4.46,8.6 8.85,8.6 3.71,0 6.08,-1.68 7.55,-3.44 v 2.88 h 4.48 v -17.31 c 0,-3.12 -0.92,-5.68 -2.65,-7.41 -1.83,-1.82 -4.41,-2.74 -7.67,-2.74 m 5.88,14.96 v 2.95 c 0,1.62 -0.63,3.13 -1.78,4.26 -1.28,1.26 -3.08,1.89 -5.01,1.93 -3.02,0 -5.13,-2.01 -5.13,-4.88 v -0.15 c 0,-3.15 2.26,-5.03 6.03,-5.03 2.12,0 4.1,0.31 5.89,0.92"
     id="path29" /><rect
     x="346"
     y="359.94998"
     width="4.5300002"
     height="27.120001"
     id="rect29" /><rect
     x="345.79001"
     y="350.30002"
     width="4.9299998"
     height="5.1799998"
     id="rect30" /><path
     d="m 369.68,359.45 c -3.04,0 -5.48,1.24 -7.29,3.69 v -3.18 h -4.53 v 27.12 h 4.53 v -16.4 c 0,-4.14 2.54,-7.04 6.19,-7.04 3.6,0 5.58,2.43 5.58,6.84 v 16.6 h 4.53 v -17.61 c 0.01,-6.18 -3.45,-10.02 -9.01,-10.02"
     id="path30" /><path
     d="m 412.1,359.45 c -3.32,0 -5.94,1.41 -7.99,4.32 -1.5,-2.8 -4.07,-4.32 -7.31,-4.32 -3.49,0 -5.56,1.81 -6.89,3.62 v -3.11 h -4.53 v 27.12 h 4.53 v -16.4 c 0,-4.08 2.41,-7.04 5.73,-7.04 3.37,0 5.23,2.41 5.23,6.79 v 16.65 h 4.53 v -16.45 c 0,-4.18 2.3,-6.99 5.73,-6.99 3.37,0 5.23,2.43 5.23,6.84 v 16.6 h 4.53 v -17.56 c 0.02,-6.22 -3.35,-10.07 -8.79,-10.07"
     id="path31" /><path
     d="m 437.56,359.45 c -6.53,0 -11.27,5.91 -11.27,14.04 v 0.25 c 0,8.05 5.08,13.89 12.08,13.89 3.7,0 6.58,-1.26 9.33,-4.06 l 0.3,-0.3 -2.66,-2.99 -0.34,0.34 c -1.97,1.97 -4.03,2.88 -6.47,2.88 -4.08,0 -7.09,-3.23 -7.6,-8.1 h 17.52 l 0.05,-0.4 c 0.05,-0.48 0.05,-1.18 0.05,-1.56 -0.02,-8.5 -4.32,-13.99 -10.99,-13.99 m -6.65,12.22 c 0.46,-4.9 3.1,-8.15 6.65,-8.15 4.25,0 6.09,4.28 6.41,8.15 z"
     id="path32" /><path
     d="m 465.79,359.45 c -3.04,0 -5.49,1.24 -7.29,3.69 v -3.18 h -4.53 v 27.12 h 4.53 v -16.4 c 0,-4.14 2.54,-7.04 6.19,-7.04 3.6,0 5.58,2.43 5.58,6.84 v 16.6 h 4.53 v -17.61 c 0,-6.18 -3.46,-10.02 -9.01,-10.02"
     id="path33" /><path
     d="m 487.08,352.31 h -4.53 v 7.65 h -3.17 v 4.13 h 3.17 v 16.45 c 0,4.48 2.48,6.94 6.99,6.94 1.46,0 2.76,-0.3 4.12,-0.95 l 0.26,-0.12 v -4.09 l -0.63,0.27 c -1.06,0.45 -2,0.67 -2.89,0.67 -2.27,0 -3.32,-1.06 -3.32,-3.32 V 364.1 h 6.84 v -4.13 h -6.84 z"
     id="path34" /><path
     d="m 524.4,350.75 -13.54,35.71 -0.24,0.62 h 4.85 l 3.42,-9.26 h 15.21 l 3.42,9.26 h 5 l -13.78,-36.33 z m 8.11,22.74 h -12.02 l 6.03,-16.11 z"
     id="path35" /><path
     d="m 562.79,376.41 c 0,4.12 -2.54,6.99 -6.19,6.99 -3.6,0 -5.58,-2.43 -5.58,-6.84 v -16.6 h -4.53 v 17.66 c 0,6.15 3.45,9.96 9.01,9.96 3.05,0 5.49,-1.24 7.29,-3.69 v 3.18 h 4.53 v -27.12 h -4.53 z"
     id="path36" /><path
     d="m 580.06,352.31 h -4.53 v 7.65 h -3.17 v 4.13 h 3.17 v 16.45 c 0,4.48 2.48,6.94 6.99,6.94 1.44,0 2.79,-0.31 4.12,-0.95 l 0.26,-0.12 v -4.09 l -0.63,0.27 c -1.06,0.45 -2,0.67 -2.89,0.67 -2.27,0 -3.32,-1.06 -3.32,-3.32 V 364.1 h 6.84 v -4.13 h -6.84 z"
     id="path37" /><path
     d="m 604.16,359.45 c -3.04,0 -5.48,1.24 -7.29,3.69 v -13.29 h -4.53 v 37.23 h 4.53 v -16.4 c 0,-4.14 2.54,-7.04 6.19,-7.04 3.6,0 5.58,2.43 5.58,6.84 v 16.6 h 4.53 v -17.61 c -0.01,-6.18 -3.46,-10.02 -9.01,-10.02"
     id="path38" /><path
     d="m 630.57,359.45 c -6.91,0 -12.13,5.99 -12.13,13.94 v 0.35 c 0,7.92 5.19,13.89 12.07,13.89 6.91,0 12.13,-6.02 12.13,-13.99 v -0.3 c 0.01,-7.92 -5.18,-13.89 -12.07,-13.89 m 7.5,13.99 v 0.25 c 0,5.56 -3.22,9.76 -7.49,9.76 -4.27,0 -7.5,-4.22 -7.5,-9.81 v -0.25 c 0,-5.65 3.13,-9.75 7.44,-9.75 4.31,-0.01 7.55,4.2 7.55,9.8"
     id="path39" /><path
     d="m 652.82,364.32 v -4.37 h -4.53 v 27.12 h 4.53 v -12.93 c 0,-5.99 3.2,-9.71 8.35,-9.71 h 0.65 v -4.81 l -0.43,-0.02 c -3.53,-0.15 -6.63,1.57 -8.57,4.72"
     id="path40" /><rect
     x="666.54999"
     y="350.30002"
     width="4.9299998"
     height="5.1799998"
     id="rect40" /><rect
     x="666.75"
     y="359.94998"
     width="4.5300002"
     height="27.120001"
     id="rect41" /><path
     d="m 684.31,352.31 h -4.53 v 7.65 h -3.17 v 4.13 h 3.17 v 16.45 c 0,4.48 2.48,6.94 6.99,6.94 1.44,0 2.79,-0.31 4.12,-0.95 l 0.26,-0.12 v -4.09 l -0.63,0.27 c -1.06,0.45 -2,0.67 -2.89,0.67 -2.27,0 -3.32,-1.06 -3.32,-3.32 V 364.1 h 6.84 v -4.13 h -6.84 z"
     id="path41" /><path
     d="m 713.16,359.95 -6.74,20.64 -7.51,-20.64 h -4.9 l 10.24,26.66 c -1.33,3.36 -2.49,4.03 -4.04,4.03 -1.07,0 -2.09,-0.29 -3.2,-0.9 l -0.46,-0.25 -1.43,3.88 0.35,0.19 c 1.59,0.85 3.21,1.26 4.94,1.26 3.89,0 6.23,-2.2 8.07,-7.6 l 9.51,-27.27 z"
     id="path42" /><path
     class="st0"
     d="m 487.34,52.53 h 38.43 L 587,197.4 H 544.26 L 533.78,171.71 H 478.3 L 468.02,197.4 H 426.1 Z m 34.93,88.16 -16.03,-40.9 -16.24,40.9 z"
     id="path43"
     style="fill:#9940d6;fill-opacity:1" /><path
     class="st0"
     d="m 131,125.89 v -0.41 c 0,-41.92 32.88,-74.8 77.47,-74.8 25.28,0 43.15,7.81 58.36,20.96 L 243.4,99.79 c -10.28,-8.63 -20.55,-13.56 -34.73,-13.56 -20.76,0 -36.78,17.47 -36.78,39.45 v 0.41 c 0,23.22 16.23,39.87 39.05,39.87 9.66,0 17.06,-2.05 23.01,-5.96 v -17.47 h -28.36 v -29.18 h 66.17 v 64.73 c -15.21,12.53 -36.37,22.19 -62.47,22.19 C 164.5,200.28 131,169.45 131,125.89"
     id="path44"
     style="fill:#9940d6;fill-opacity:1" /><rect
     x="300.34"
     y="163.13"
     class="st1"
     width="116.72"
     height="34.27"
     id="rect44"
     style="fill:#01ad01;fill-opacity:1" /><path
     class="st0"
     d="m 406.81,78.52 c -4.44,11.64 -21.72,34.96 -44.96,34.96 -16.18,0 -26.5,-9.08 -26.5,-9.08 l 93.2,-51.74 c 0,0 -18.58,-52.66 -74.28,-52.66 -36.76,0 -68.36,33.78 -68.36,73.96 0,44.56 38.62,73.92 75.93,73.92 43.7,0 73.54,-40.06 75.94,-58.3 z M 358.07,33.78 c 16.32,0 23.94,10.22 23.94,10.22 l -61.2,34.12 c -2.91,-13.3 5.91,-44.34 37.26,-44.34"
     id="path45"
     style="fill:#9940d6;fill-opacity:1" /></g>
</svg>
